<svg width="342" height="458" viewBox="0 0 342 458" fill="none" xmlns="http://www.w3.org/2000/svg">
<path opacity="0.25" d="M171 400.024C248.32 400.024 311 353.621 311 296.381C311 239.141 248.32 192.738 171 192.738C93.6801 192.738 31 239.141 31 296.381C31 353.621 93.6801 400.024 171 400.024Z" fill="#202537" fill-opacity="0.7"/>
<path d="M187.64 227.01C187.64 227.01 197.292 253.37 187.64 258.943C186.236 259.754 184.649 260.67 182.973 261.638C182.968 261.641 182.963 261.642 182.959 261.645L164.662 272.214C162.087 273.702 162.088 276.137 164.665 277.623L190.368 292.469C192.944 293.957 197.138 293.921 199.688 292.391L212.738 284.672C212.782 284.693 212.825 284.714 212.868 284.735C214.368 283.802 215.77 282.924 217.032 282.133L217.605 281.794C217.659 281.76 217.694 281.72 217.744 281.686C220.39 280.025 222.183 278.888 222.183 278.888C222.183 278.888 230.347 272.91 230.347 251.669L187.64 227.01Z" fill="#E6E6E6"/>
<path d="M230.352 248.962C230.352 270.206 222.189 276.181 222.189 276.181C222.189 276.181 220.401 277.31 217.743 278.98C217.696 279.003 217.649 279.051 217.602 279.098L217.037 279.427C215.767 280.227 214.379 281.097 212.873 282.038C212.826 282.015 212.779 281.991 212.732 281.968L211.226 282.862L199.698 289.685C197.134 291.214 192.946 291.261 190.358 289.755L164.668 274.91C162.08 273.428 162.08 271.005 164.668 269.499L176.219 262.818L182.948 258.936C182.971 258.936 182.971 258.936 182.971 258.936C184.641 257.971 186.241 257.054 187.629 256.231C197.063 250.796 188.1 225.601 187.653 224.354C187.653 224.354 187.653 224.354 187.653 224.33H187.676L230.352 248.962Z" fill="#8C8C91"/>
<path opacity="0.5" d="M230.352 248.962C230.352 270.206 222.189 276.181 222.189 276.181C222.189 276.181 220.401 277.31 217.743 278.98C217.696 279.003 217.649 279.051 217.602 279.098L217.037 279.427C215.767 280.227 214.379 281.097 212.873 282.038C212.826 282.015 212.779 281.991 212.732 281.968L211.226 282.862L176.22 262.818L182.949 258.936C182.972 258.936 182.972 258.936 182.972 258.936C184.642 257.971 186.242 257.054 187.63 256.231C197.064 250.796 188.101 225.601 187.654 224.354L187.677 224.33L230.352 248.962Z" fill="#37383F"/>
<path d="M299.91 165.92V281.51C299.91 293.41 291.45 298.31 281.13 292.41L153.07 219.24C142.74 213.33 134.29 198.77 134.29 186.87V71.95C134.29 60.06 142.76 55.13 153.1 61L202.93 89.27L217.98 97.81L281.09 133.61C291.44 139.48 299.91 154.02 299.91 165.92Z" fill="#E6E6E7"/>
<path d="M295.84 169.963V285.558C295.84 297.455 287.404 302.377 277.074 296.455L158.37 228.639L149.014 223.285C138.685 217.39 130.221 202.816 130.221 190.918V76C130.221 64.103 138.712 59.181 149.041 65.049L232.648 112.477L277.047 137.678C287.377 143.545 295.84 158.066 295.84 169.963Z" fill="#8C8C91"/>
<path d="M295.84 169.963V277.365L130.222 181.563V76C130.222 64.103 138.713 59.181 149.042 65.049L277.048 137.678C287.377 143.545 295.84 158.066 295.84 169.963Z" fill="#333333"/>
<path d="M50.8763 321.497C49.6573 320.446 48.2063 319.506 46.5953 318.677V311.223H15.0453V318.621C13.3873 319.463 11.8933 320.421 10.6463 321.497H6.17732V329.805C6.17432 329.904 6.15332 330 6.15332 330.099C6.15332 330.198 6.17432 330.295 6.17732 330.394V330.419H6.17932C6.46132 338.534 17.3483 345.063 30.7623 345.063C44.1763 345.063 55.0633 338.534 55.3453 330.419H55.3723V321.497H50.8763ZM30.7613 334.823C22.6573 334.823 16.0883 333.464 16.0883 328.537C16.0883 323.939 21.8093 320.157 29.1583 319.671H32.3653C39.7143 320.157 45.4353 323.939 45.4353 328.537C45.4343 333.465 38.8653 334.823 30.7613 334.823Z" fill="#B2B2B5"/>
<path d="M287.726 169.967V263.307L282.439 267.781L272.678 254.707L273.061 254.815L138.333 176.882V79.0681L134.29 75.6591L139.422 71.3531C139.757 70.9461 140.2 70.6831 140.774 70.6831C141.432 70.6831 142.867 70.8741 145.032 72.1071L273.05 144.74C276.938 146.953 280.586 150.972 283.278 155.578C285.991 160.217 287.726 165.445 287.726 169.967Z" fill="#0071BC"/>
<path d="M283.276 155.576L273.479 162.37L138.332 91.89V79.067L134.289 75.658L139.421 71.352C139.756 70.945 140.199 70.682 140.773 70.682C141.431 70.682 142.866 70.873 145.031 72.106L273.049 144.739C276.936 146.952 280.584 150.971 283.276 155.576Z" fill="#1CA0E8"/>
<path d="M133.038 181.37L282.433 267.786V174.449C282.433 173.728 282.374 172.984 282.289 172.232L133.039 85.899V181.37H133.038Z" fill="#E6E6E7"/>
<path d="M267.751 149.219L139.737 76.587C137.569 75.354 136.138 75.17 135.48 75.17C133.275 75.17 133.037 78.887 133.037 80.486V85.899L282.287 172.232C281.311 163.605 274.943 153.305 267.751 149.219Z" fill="url(#paint0_linear_174_6122)"/>
<path d="M141.793 83.507C141.793 84.828 141.079 85.899 140.198 85.899C139.317 85.899 138.603 84.828 138.603 83.507C138.603 82.186 139.317 81.115 140.198 81.115C141.079 81.114 141.793 82.186 141.793 83.507Z" fill="#BDCCD4"/>
<path d="M146.274 86.4001C146.274 87.7211 145.56 88.7921 144.679 88.7921C143.798 88.7921 143.084 87.7211 143.084 86.4001C143.084 85.0791 143.798 84.0081 144.679 84.0081C145.56 84.0071 146.274 85.0781 146.274 86.4001Z" fill="#BDCCD4"/>
<path d="M150.995 89.303C150.995 90.624 150.281 91.695 149.4 91.695C148.519 91.695 147.805 90.624 147.805 89.303C147.805 87.982 148.519 86.911 149.4 86.911C150.281 86.91 150.995 87.981 150.995 89.303Z" fill="#BDCCD4"/>
<path d="M137.103 93.0601V106.923L149.065 113.779V99.9461L137.103 93.0601Z" fill="#41AEBE"/>
<path d="M137.103 110.704V124.567L149.065 131.423V117.59L137.103 110.704Z" fill="#F75852"/>
<path d="M139.135 114.223V123.377L147.033 127.903V118.77L139.135 114.223Z" fill="#F7931E"/>
<path d="M134.155 116.861V126.015L142.053 130.541V121.408L134.155 116.861Z" fill="#F75852"/>
<path d="M137.103 128.348V142.211L149.065 149.067V135.234L137.103 128.348Z" fill="#FAC230"/>
<path d="M142.053 121.408L147.033 118.77V127.903L142.053 130.541V121.408Z" fill="#D4332D"/>
<path d="M147.033 118.77L139.135 114.223L134.155 116.861L142.053 121.408L147.033 118.77Z" fill="#F78E8A"/>
<path d="M137.103 144.995V158.859L149.065 165.714V151.881L137.103 144.995Z" fill="#1CA0E8"/>
<path d="M139.135 148.515V157.668L147.033 162.194V153.061L139.135 148.515Z" fill="#F7931E"/>
<path d="M134.155 151.152V160.306L142.053 164.832V155.699L134.155 151.152Z" fill="#1CA0E8"/>
<path d="M137.103 162.639V176.503L149.065 183.358V169.525L137.103 162.639Z" fill="#662D91"/>
<path d="M142.053 155.699L147.033 153.061V162.194L142.053 164.832V155.699Z" fill="#0776B3"/>
<path d="M147.033 153.061L139.135 148.515L134.155 151.152L142.053 155.699L147.033 153.061Z" fill="#89C6E8"/>
<path d="M156.029 104.187L191.934 124.877V166.332L156.048 145.624L156.029 104.187Z" fill="#AFC9E3"/>
<path d="M151.942 106.479L187.846 127.17V168.625L151.96 147.917L151.942 106.479Z" fill="#662D91"/>
<path d="M187.846 127.17L189.441 126.273V167.728L187.846 168.625V127.17Z" fill="#4A1473"/>
<path d="M151.942 106.479L153.537 105.582L189.441 126.273L187.846 127.17L151.942 106.479Z" fill="#AB83C9"/>
<path d="M185.354 145.42C185.234 147.788 185.737 150.073 186.646 152.095V166.557L153.152 147.226V142.142L156.442 136.257L161.526 135.264C161.526 135.264 162.626 137.573 164.253 139.116C165.389 140.217 166.777 140.946 168.212 140.24C171.693 138.541 172.889 132.764 177.076 133.063C179.684 133.254 182.399 134.905 183.99 138.039C184.96 139.954 185.498 142.406 185.354 145.42Z" fill="#FF931E"/>
<path d="M186.646 139.296V166.557L153.152 147.226V142.142L153.14 122.584C154.922 121.148 156.19 121.113 156.848 121.196C160.807 121.722 163.332 129.45 164.025 134.558C164.276 136.436 164.276 137.895 164.252 139.115C164.204 141.412 164.061 142.919 165.317 144.929C167.099 147.776 170.7 150.037 172.793 149.116C174.91 148.171 173.642 144.798 176.585 141.341C176.944 140.91 179.803 137.633 183.355 137.944C183.57 137.968 183.774 137.992 183.989 138.04C184.924 138.219 185.821 138.662 186.646 139.296Z" fill="#8CC63F"/>
<path d="M203.896 131.801L239.783 152.52V180.145L203.896 159.426V131.801Z" fill="#AFC9E3"/>
<path d="M241.767 153.666V181.291L263.706 193.958V166.557L241.767 153.666Z" fill="#AFC9E3"/>
<path d="M200.506 133.862L236.392 154.581V182.206L200.506 161.487V133.862Z" fill="#2E3192"/>
<path d="M238.154 155.541V183.166L260.092 195.832V168.432L238.154 155.541Z" fill="#F0B71E"/>
<path d="M260.092 168.432L261.612 167.809L261.609 194.818L260.092 195.832V168.432Z" fill="#ED4A08"/>
<path d="M238.154 155.541L239.674 154.918L261.612 167.809L260.092 168.432L238.154 155.541Z" fill="#F0CE73"/>
<path d="M236.392 154.581L237.688 153.771V181.396L236.392 182.206V154.581Z" fill="#121682"/>
<path d="M200.506 133.862L201.802 133.052L237.688 153.771L236.392 154.581L200.506 133.862Z" fill="#696CB5"/>
<path d="M254.737 182.651C252.302 179.346 250.738 178.065 250.738 178.065L250.781 176.833C251.257 176.58 251.648 176.103 251.901 175.452C252.235 175.591 252.577 175.167 252.685 174.449C252.798 173.692 252.606 172.907 252.259 172.689C252.254 172.686 252.249 172.686 252.244 172.683L252.291 170.592L252.283 170.589C252.274 170.38 252.235 170.165 252.164 169.948C252.088 169.612 251.969 169.259 251.827 168.932C251.712 168.671 251.588 168.447 251.411 168.234C251.226 168.011 250.968 167.808 250.855 167.54C250.933 167.506 250.998 167.463 251.059 167.4C250.791 167.416 250.19 167.126 249.873 166.993C249.967 166.876 250.008 166.708 250.065 166.559C249.755 166.773 249.233 166.698 248.837 166.703C248.444 166.709 248.061 166.741 247.709 166.873C247.459 166.967 247.195 167.08 247.008 167.292C246.958 167.349 246.893 167.461 246.838 167.582C246.732 167.74 246.661 167.926 246.63 168.141L246.623 168.138L246.469 170.101C246.176 170.082 245.965 170.61 245.991 171.346C246.016 172.033 246.237 172.671 246.51 172.886C246.67 173.704 246.969 174.49 247.37 175.158L247.292 176.336C247.292 176.336 245.81 176.062 243.537 176.794C241.938 177.309 241.576 179.26 241.498 180.394C241.631 180.905 241.922 181.369 242.295 181.582L255.638 189.222C256.11 189.492 256.519 189.389 256.745 189.021C256.784 187.701 256.575 185.145 254.737 182.651Z" fill="white"/>
<path d="M203.746 142.49V146.677L231.714 162.728V158.689L203.746 142.49Z" fill="white"/>
<path d="M203.746 147.874V152.06L231.714 168.111V164.072L203.746 147.874Z" fill="white"/>
<path d="M203.746 153.256V157.443L231.714 173.494V169.455L203.746 153.256Z" fill="white"/>
<path d="M156.029 159.437L156.048 166.332L191.934 186.743V180.145L156.029 159.437Z" fill="#AFC9E3"/>
<path d="M153.537 160.857L153.555 167.752L189.441 188.163V181.565L153.537 160.857Z" fill="#29ABE2"/>
<path d="M189.441 181.565L190.438 181.008V187.465L189.441 188.163V181.565Z" fill="#11739C"/>
<path d="M154.656 160.23L153.537 160.857L189.441 181.565L190.438 181.008L154.656 160.23Z" fill="#5CC6F2"/>
<path d="M156.029 172.232L156.048 179.128L191.934 199.538V192.94L156.029 172.232Z" fill="#AFC9E3"/>
<path d="M153.537 173.652L153.555 180.547L189.441 200.958V194.36L153.537 173.652Z" fill="#39B54A"/>
<path d="M189.441 194.36L190.438 193.803V200.26L189.441 200.958V194.36Z" fill="#188F28"/>
<path d="M154.656 173.025L153.537 173.652L189.441 194.36L190.438 193.803L154.656 173.025Z" fill="#52DE65"/>
<path d="M156.029 185.027L156.048 191.923L191.934 212.333V205.735L156.029 185.027Z" fill="#AFC9E3"/>
<path d="M153.537 186.447L153.555 193.342L189.441 213.753V207.155L153.537 186.447Z" fill="#ED1C24"/>
<path d="M189.441 207.155L190.438 206.598V213.055L189.441 213.753V207.155Z" fill="#991218"/>
<path d="M154.656 185.82L153.537 186.447L189.441 207.155L190.438 206.598L154.656 185.82Z" fill="#ED585D"/>
<path d="M200.506 212.72L227.82 228.489V187.051L200.506 171.282V212.72Z" fill="#E6E6E6"/>
<path d="M221.114 211.624L207.314 203.728C206.737 203.398 206.276 202.569 206.284 201.874L206.428 189.464C206.436 188.787 206.904 188.528 207.473 188.886L210.518 190.801L210.528 189.592C210.533 188.926 210.985 188.672 211.535 189.023L217.362 192.743C217.886 193.078 218.307 193.872 218.306 194.521L218.304 195.698L221.105 197.46C221.614 197.78 222.026 198.559 222.027 199.202L222.045 210.966C222.044 211.624 221.629 211.919 221.114 211.624ZM220.177 199.223L217.35 197.471L216.394 196.878L216.402 194.502L212.51 192.054L212.494 194.462L211.5 193.846L208.472 191.97L208.375 201.83L220.177 208.696V199.223ZM209.984 194.131C210.263 194.302 210.486 194.714 210.483 195.05C210.48 195.386 210.252 195.521 209.974 195.351C209.695 195.18 209.47 194.768 209.473 194.431C209.475 194.093 209.705 193.959 209.984 194.131ZM214.452 196.879C216.059 197.867 217.343 200.257 217.338 202.236C217.333 204.219 216.034 205.075 214.417 204.127C212.78 203.166 211.449 200.73 211.463 198.707C211.478 196.688 212.825 195.878 214.452 196.879ZM214.423 202.912C215.502 203.55 216.374 202.985 216.378 201.659C216.382 200.336 215.521 198.736 214.447 198.081C213.364 197.42 212.471 197.966 212.462 199.307C212.453 200.65 213.336 202.269 214.423 202.912Z" fill="#999999"/>
<path d="M239.777 193.958L239.782 214.804L275.668 234.94L275.663 214.679L239.777 193.958Z" fill="#AFC9E3"/>
<path d="M222.607 203.84L222.611 224.686L245.763 237.677V217.21L222.607 203.84Z" fill="#1A1A1A"/>
<path d="M247.454 216.256L224.201 202.83L222.607 203.84L245.763 217.21L247.454 216.256Z" fill="#CCCCCC"/>
<path d="M258.494 224.561L245.764 217.21V237.677L258.498 244.822L258.494 224.561Z" fill="#662D91"/>
<path d="M258.497 244.822L260.092 243.812L260.088 223.551L258.493 224.561L258.497 244.822Z" fill="#482066"/>
<path d="M258.494 224.561L260.089 223.551L247.455 216.256L245.764 217.21L258.494 224.561Z" fill="#9C45DE"/>
<path d="M252.827 227.57L248.793 227.421C248.714 227.416 248.642 227.441 248.57 227.462L248.56 227.453L248.517 227.472C248.495 227.481 248.474 227.489 248.453 227.5L247.244 228.03V228.985C247.244 228.985 247.468 232.422 247.169 232.388C246.336 232.294 245.761 232.516 245.762 233.296C245.763 233.662 245.908 234.039 246.136 234.375L245.837 234.48L246.929 235.801L248.148 235.27V235.267C248.426 235.116 248.599 234.807 248.602 234.375C248.602 234.375 248.621 230.806 248.623 230.432C248.625 230.058 248.999 230.071 248.999 230.071L251.962 230.328L252.072 233.733C251.995 233.696 251.927 233.655 251.84 233.622C250.875 233.263 250.114 233.679 250.106 234.535C250.103 234.866 250.215 235.213 250.406 235.54L250.342 235.545L251.744 237.423L253.07 236.869V236.866C253.423 236.718 253.652 236.395 253.661 235.927L253.792 228.726C253.802 228.12 253.366 227.602 252.827 227.57Z" fill="#482066"/>
<path d="M251.681 228.068L247.647 227.919C247.203 227.892 246.848 228.305 246.846 228.839L246.829 233.367C246.829 233.367 246.829 233.428 246.829 233.43C246.829 233.43 246.577 233.085 246.022 232.886C245.232 232.603 244.614 233.015 244.615 233.794C244.616 234.57 245.233 235.414 246.017 235.746C246.83 236.091 247.449 235.698 247.454 234.873C247.454 234.873 247.473 231.304 247.475 230.93C247.477 230.556 247.851 230.569 247.851 230.569L251.391 230.876C251.391 230.876 251.817 230.903 251.81 231.342C251.803 231.78 251.754 234.815 251.754 234.815C251.754 234.815 251.754 234.816 251.754 234.818C251.754 234.818 251.372 234.374 250.692 234.121C249.727 233.762 248.966 234.178 248.958 235.034C248.95 235.888 249.693 236.857 250.649 237.275C251.645 237.711 252.496 237.339 252.512 236.425L252.643 229.224C252.656 228.619 252.22 228.101 251.681 228.068Z" fill="white"/>
<path d="M224.976 216.725L243.393 227.298" stroke="#1CA0E8" stroke-width="0.8972" stroke-miterlimit="10" stroke-linecap="round" stroke-linejoin="round"/>
<path d="M234.166 220.992C234.34 222.057 233.862 223.022 233.097 223.147C232.333 223.272 231.572 222.51 231.398 221.445C231.224 220.38 231.702 219.415 232.467 219.29C233.231 219.165 233.992 219.927 234.166 220.992Z" fill="#662D91"/>
<path d="M233.498 221.102C233.588 221.653 233.341 222.151 232.946 222.216C232.551 222.281 232.157 221.887 232.067 221.336C231.977 220.785 232.224 220.287 232.619 220.222C233.014 220.157 233.408 220.551 233.498 221.102Z" fill="#1CA0E8"/>
<path d="M216.477 320.452L213.012 319.713L109.039 259.771C108.011 259.178 106.329 259.179 105.301 259.772L58.4906 286.779L56.7696 286.412V288.334C56.7656 288.384 56.7656 288.434 56.7696 288.484V288.488C56.8016 288.852 57.0546 289.211 57.5336 289.487L164.141 351.037C165.169 351.63 166.85 351.63 167.878 351.037L215.707 323.423C216.242 323.114 216.495 322.704 216.474 322.297L216.478 322.298L216.477 320.452Z" fill="#B3B3B3"/>
<path d="M215.705 319.374C216.733 319.967 216.733 320.937 215.706 321.53L167.877 349.144C166.85 349.738 165.168 349.738 164.14 349.144L57.5333 287.594C56.5053 287.001 56.5063 286.03 57.5333 285.437L105.299 257.878C106.327 257.285 108.009 257.285 109.037 257.877L215.705 319.374Z" fill="#E6E6E6"/>
<path d="M102.63 265.711C102.401 265.58 102.401 265.364 102.628 265.231L106.742 262.838C106.97 262.706 107.343 262.705 107.572 262.837L111.664 265.199C111.892 265.331 111.892 265.547 111.664 265.678L107.55 268.053C107.322 268.185 106.948 268.185 106.719 268.054L102.63 265.711Z" fill="#4D4D4D"/>
<path d="M102.63 265.561C102.401 265.43 102.401 265.214 102.628 265.081L106.742 262.688C106.97 262.555 107.343 262.555 107.572 262.687L111.664 265.049C111.892 265.181 111.892 265.397 111.664 265.528L107.55 267.903C107.322 268.035 106.948 268.036 106.719 267.904L102.63 265.561Z" fill="#1A1A1A"/>
<path d="M110.042 269.926C109.813 269.795 109.813 269.579 110.041 269.446L114.155 267.053C114.383 266.92 114.756 266.92 114.985 267.052L119.077 269.414C119.305 269.546 119.305 269.762 119.077 269.893L114.963 272.268C114.735 272.4 114.361 272.401 114.132 272.27L110.042 269.926Z" fill="#4D4D4D"/>
<path d="M110.042 269.776C109.813 269.645 109.813 269.429 110.041 269.296L114.155 266.903C114.383 266.771 114.756 266.77 114.985 266.902L119.077 269.264C119.305 269.396 119.305 269.612 119.077 269.743L114.963 272.118C114.735 272.25 114.361 272.25 114.132 272.119L110.042 269.776Z" fill="#1A1A1A"/>
<path d="M117.443 274.151C117.214 274.02 117.213 273.804 117.441 273.671L121.555 271.278C121.783 271.145 122.156 271.145 122.385 271.277L126.477 273.639C126.705 273.771 126.705 273.987 126.477 274.118L122.363 276.493C122.135 276.625 121.761 276.625 121.532 276.494L117.443 274.151Z" fill="#4D4D4D"/>
<path d="M117.443 274.001C117.214 273.87 117.213 273.654 117.441 273.522L121.555 271.129C121.783 270.996 122.156 270.996 122.385 271.128L126.477 273.49C126.705 273.622 126.705 273.838 126.477 273.969L122.363 276.344C122.135 276.476 121.761 276.476 121.532 276.345L117.443 274.001Z" fill="#1A1A1A"/>
<path d="M124.71 278.421C124.481 278.29 124.481 278.074 124.709 277.941L128.823 275.548C129.051 275.415 129.424 275.415 129.653 275.547L133.745 277.909C133.973 278.041 133.973 278.257 133.745 278.388L129.631 280.763C129.403 280.895 129.029 280.895 128.8 280.764L124.71 278.421Z" fill="#4D4D4D"/>
<path d="M124.71 278.271C124.481 278.14 124.481 277.924 124.709 277.791L128.823 275.398C129.051 275.265 129.424 275.265 129.653 275.397L133.745 277.759C133.973 277.891 133.973 278.107 133.745 278.238L129.631 280.613C129.403 280.745 129.029 280.745 128.8 280.614L124.71 278.271Z" fill="#1A1A1A"/>
<path d="M132.096 282.676C131.867 282.545 131.866 282.329 132.095 282.197L136.209 279.804C136.437 279.671 136.81 279.671 137.039 279.803L141.131 282.165C141.359 282.297 141.359 282.513 141.131 282.644L137.017 285.019C136.789 285.151 136.415 285.151 136.186 285.02L132.096 282.676Z" fill="#4D4D4D"/>
<path d="M132.096 282.526C131.867 282.395 131.866 282.179 132.095 282.046L136.209 279.653C136.437 279.52 136.81 279.52 137.039 279.652L141.131 282.014C141.359 282.146 141.359 282.362 141.131 282.493L137.017 284.868C136.789 285 136.415 285 136.186 284.869L132.096 282.526Z" fill="#1A1A1A"/>
<path d="M139.409 286.931C139.18 286.8 139.179 286.584 139.408 286.451L143.522 284.058C143.75 283.925 144.123 283.925 144.352 284.057L148.444 286.419C148.672 286.551 148.672 286.767 148.444 286.898L144.33 289.273C144.102 289.405 143.728 289.406 143.499 289.274L139.409 286.931Z" fill="#4D4D4D"/>
<path d="M139.409 286.781C139.18 286.65 139.179 286.434 139.408 286.302L143.522 283.909C143.75 283.776 144.123 283.776 144.352 283.908L148.444 286.27C148.672 286.402 148.672 286.618 148.444 286.749L144.33 289.124C144.102 289.256 143.728 289.256 143.499 289.125L139.409 286.781Z" fill="#1A1A1A"/>
<path d="M146.733 291.171C146.504 291.04 146.503 290.824 146.732 290.691L150.846 288.298C151.074 288.165 151.447 288.165 151.676 288.297L155.768 290.659C155.996 290.791 155.996 291.007 155.768 291.138L151.654 293.513C151.426 293.645 151.052 293.645 150.823 293.514L146.733 291.171Z" fill="#4D4D4D"/>
<path d="M146.733 291.021C146.504 290.89 146.503 290.674 146.732 290.542L150.846 288.149C151.074 288.017 151.447 288.016 151.676 288.148L155.768 290.51C155.996 290.642 155.996 290.858 155.768 290.989L151.654 293.364C151.426 293.496 151.052 293.496 150.823 293.365L146.733 291.021Z" fill="#1A1A1A"/>
<path d="M154.135 295.411C153.906 295.28 153.906 295.064 154.134 294.932L158.248 292.539C158.476 292.406 158.849 292.406 159.078 292.538L163.17 294.9C163.398 295.032 163.398 295.248 163.17 295.379L159.056 297.754C158.828 297.886 158.454 297.886 158.225 297.755L154.135 295.411Z" fill="#4D4D4D"/>
<path d="M154.135 295.262C153.906 295.131 153.906 294.915 154.134 294.782L158.248 292.389C158.476 292.256 158.849 292.256 159.078 292.388L163.17 294.75C163.398 294.882 163.398 295.098 163.17 295.229L159.056 297.604C158.828 297.736 158.454 297.737 158.225 297.606L154.135 295.262Z" fill="#1A1A1A"/>
<path d="M161.505 299.651C161.276 299.52 161.276 299.304 161.503 299.171L165.617 296.778C165.845 296.646 166.218 296.645 166.447 296.777L170.539 299.139C170.767 299.271 170.767 299.487 170.539 299.619L166.425 301.994C166.197 302.126 165.823 302.126 165.594 301.995L161.505 299.651Z" fill="#4D4D4D"/>
<path d="M161.505 299.502C161.276 299.371 161.276 299.155 161.503 299.023L165.617 296.63C165.845 296.497 166.218 296.497 166.447 296.629L170.539 298.991C170.767 299.123 170.767 299.339 170.539 299.47L166.425 301.845C166.197 301.977 165.823 301.978 165.594 301.846L161.505 299.502Z" fill="#1A1A1A"/>
<path d="M168.847 303.922C168.618 303.791 168.618 303.575 168.846 303.442L172.96 301.049C173.188 300.916 173.561 300.916 173.79 301.048L177.882 303.41C178.11 303.542 178.11 303.758 177.882 303.889L173.768 306.264C173.54 306.396 173.166 306.396 172.937 306.265L168.847 303.922Z" fill="#4D4D4D"/>
<path d="M168.847 303.772C168.618 303.641 168.618 303.425 168.846 303.293L172.96 300.9C173.188 300.768 173.561 300.767 173.79 300.899L177.882 303.261C178.11 303.393 178.11 303.609 177.882 303.74L173.768 306.115C173.54 306.247 173.166 306.248 172.937 306.116L168.847 303.772Z" fill="#1A1A1A"/>
<path d="M176.248 308.147C176.019 308.016 176.018 307.8 176.247 307.668L180.361 305.275C180.589 305.143 180.962 305.142 181.191 305.274L185.283 307.636C185.511 307.768 185.511 307.984 185.283 308.115L181.169 310.49C180.941 310.622 180.567 310.622 180.338 310.491L176.248 308.147Z" fill="#4D4D4D"/>
<path d="M176.248 307.997C176.019 307.866 176.018 307.65 176.247 307.518L180.361 305.125C180.589 304.992 180.962 304.992 181.191 305.123L185.283 307.486C185.511 307.618 185.511 307.834 185.283 307.965L181.169 310.34C180.941 310.472 180.567 310.472 180.338 310.341L176.248 307.997Z" fill="#1A1A1A"/>
<path d="M183.545 312.417C183.316 312.286 183.315 312.07 183.544 311.937L187.658 309.544C187.886 309.412 188.259 309.411 188.488 309.543L192.58 311.905C192.808 312.037 192.808 312.253 192.58 312.384L188.466 314.759C188.238 314.891 187.864 314.891 187.635 314.76L183.545 312.417Z" fill="#4D4D4D"/>
<path d="M183.545 312.267C183.316 312.136 183.315 311.92 183.544 311.787L187.658 309.394C187.886 309.261 188.259 309.261 188.488 309.393L192.58 311.755C192.808 311.887 192.808 312.103 192.58 312.234L188.466 314.609C188.238 314.741 187.864 314.742 187.635 314.611L183.545 312.267Z" fill="#1A1A1A"/>
<path d="M190.863 316.657C190.634 316.526 190.634 316.31 190.862 316.178L194.976 313.785C195.204 313.652 195.577 313.652 195.806 313.784L199.898 316.146C200.126 316.278 200.126 316.494 199.898 316.626L195.783 319C195.555 319.132 195.181 319.132 194.952 319.001L190.863 316.657Z" fill="#4D4D4D"/>
<path d="M190.863 316.507C190.634 316.376 190.634 316.16 190.862 316.027L194.976 313.634C195.204 313.502 195.577 313.501 195.806 313.633L199.898 315.995C200.126 316.127 200.126 316.343 199.898 316.474L195.784 318.849C195.556 318.981 195.182 318.982 194.953 318.85L190.863 316.507Z" fill="#1A1A1A"/>
<path d="M198.31 320.867C198.081 320.736 198.081 320.52 198.308 320.387L202.422 317.994C202.65 317.861 203.024 317.861 203.252 317.993L207.344 320.355C207.572 320.487 207.572 320.703 207.344 320.834L203.23 323.209C203.002 323.341 202.628 323.341 202.399 323.21L198.31 320.867Z" fill="#4D4D4D"/>
<path d="M198.31 320.717C198.081 320.586 198.081 320.37 198.308 320.238L202.422 317.845C202.65 317.712 203.024 317.712 203.252 317.844L207.344 320.206C207.572 320.338 207.572 320.554 207.344 320.685L203.23 323.06C203.002 323.192 202.628 323.192 202.399 323.061L198.31 320.717Z" fill="#1A1A1A"/>
<path d="M174.043 323.798C173.814 323.667 173.812 323.451 174.04 323.319L178.154 320.926C178.382 320.793 178.756 320.793 178.985 320.925L183.076 323.287C183.304 323.419 183.304 323.635 183.076 323.766L178.962 326.141C178.734 326.273 178.361 326.274 178.132 326.142L174.043 323.798Z" fill="#4D4D4D"/>
<path d="M174.043 323.648C173.814 323.517 173.812 323.301 174.04 323.169L178.154 320.776C178.382 320.644 178.756 320.643 178.985 320.775L183.076 323.137C183.304 323.269 183.304 323.485 183.076 323.616L178.962 325.991C178.734 326.123 178.361 326.123 178.132 325.992L174.043 323.648Z" fill="#1A1A1A"/>
<path d="M166.863 319.661C166.634 319.53 166.634 319.314 166.862 319.181L170.976 316.788C171.204 316.656 171.577 316.655 171.806 316.787L175.898 319.149C176.126 319.281 176.126 319.497 175.898 319.628L171.784 322.003C171.556 322.135 171.182 322.136 170.953 322.004L166.863 319.661Z" fill="#4D4D4D"/>
<path d="M166.863 319.511C166.634 319.38 166.634 319.164 166.862 319.032L170.976 316.639C171.204 316.506 171.577 316.506 171.806 316.638L175.898 319C176.126 319.132 176.126 319.348 175.898 319.479L171.784 321.854C171.556 321.986 171.182 321.986 170.953 321.855L166.863 319.511Z" fill="#1A1A1A"/>
<path d="M159.684 315.524C159.455 315.393 159.454 315.177 159.683 315.044L163.797 312.651C164.025 312.518 164.398 312.518 164.627 312.65L168.719 315.012C168.947 315.144 168.947 315.36 168.719 315.491L164.605 317.866C164.377 317.998 164.003 317.998 163.774 317.867L159.684 315.524Z" fill="#4D4D4D"/>
<path d="M159.684 315.374C159.455 315.243 159.454 315.027 159.683 314.895L163.797 312.502C164.025 312.369 164.398 312.369 164.627 312.501L168.719 314.863C168.947 314.995 168.947 315.211 168.719 315.343L164.605 317.718C164.377 317.85 164.003 317.85 163.774 317.719L159.684 315.374Z" fill="#1A1A1A"/>
<path d="M152.505 311.386C152.276 311.255 152.276 311.039 152.503 310.907L156.617 308.514C156.845 308.381 157.219 308.381 157.447 308.513L161.539 310.875C161.767 311.007 161.767 311.223 161.539 311.354L157.425 313.729C157.197 313.861 156.823 313.861 156.594 313.73L152.505 311.386Z" fill="#4D4D4D"/>
<path d="M152.505 311.237C152.276 311.106 152.276 310.89 152.503 310.757L156.617 308.364C156.845 308.231 157.219 308.231 157.447 308.363L161.539 310.725C161.767 310.857 161.767 311.073 161.539 311.204L157.425 313.579C157.197 313.711 156.823 313.711 156.594 313.58L152.505 311.237Z" fill="#1A1A1A"/>
<path d="M145.325 307.249C145.096 307.118 145.096 306.902 145.324 306.769L149.438 304.376C149.666 304.244 150.039 304.243 150.268 304.375L154.36 306.737C154.588 306.869 154.588 307.085 154.36 307.216L150.246 309.591C150.018 309.723 149.644 309.723 149.415 309.592L145.325 307.249Z" fill="#4D4D4D"/>
<path d="M145.325 307.099C145.096 306.968 145.096 306.752 145.324 306.62L149.438 304.227C149.666 304.094 150.039 304.094 150.268 304.225L154.36 306.588C154.588 306.72 154.588 306.936 154.36 307.067L150.246 309.442C150.018 309.574 149.644 309.574 149.415 309.443L145.325 307.099Z" fill="#1A1A1A"/>
<path d="M138.146 303.112C137.917 302.981 137.916 302.765 138.145 302.633L142.259 300.24C142.487 300.107 142.86 300.107 143.089 300.239L147.181 302.601C147.409 302.733 147.409 302.949 147.181 303.081L143.067 305.456C142.839 305.588 142.465 305.588 142.236 305.457L138.146 303.112Z" fill="#4D4D4D"/>
<path d="M138.146 302.962C137.917 302.831 137.916 302.615 138.145 302.482L142.259 300.089C142.487 299.956 142.86 299.956 143.089 300.088L147.181 302.45C147.409 302.582 147.409 302.798 147.181 302.929L143.067 305.304C142.839 305.436 142.465 305.436 142.236 305.305L138.146 302.962Z" fill="#1A1A1A"/>
<path d="M130.967 298.974C130.738 298.843 130.737 298.627 130.965 298.495L135.079 296.102C135.307 295.969 135.681 295.969 135.909 296.101L140.001 298.463C140.229 298.595 140.229 298.811 140.001 298.942L135.887 301.317C135.659 301.449 135.285 301.45 135.056 301.318L130.967 298.974Z" fill="#4D4D4D"/>
<path d="M130.967 298.825C130.738 298.694 130.737 298.478 130.965 298.345L135.079 295.952C135.307 295.82 135.681 295.819 135.909 295.951L140.001 298.313C140.229 298.445 140.229 298.661 140.001 298.792L135.887 301.167C135.659 301.299 135.285 301.299 135.056 301.168L130.967 298.825Z" fill="#1A1A1A"/>
<path d="M123.787 294.837C123.558 294.706 123.558 294.49 123.785 294.358L127.899 291.965C128.127 291.832 128.5 291.832 128.729 291.964L132.821 294.326C133.049 294.458 133.049 294.674 132.821 294.805L128.707 297.18C128.479 297.312 128.105 297.313 127.876 297.181L123.787 294.837Z" fill="#4D4D4D"/>
<path d="M123.787 294.687C123.558 294.556 123.558 294.34 123.785 294.208L127.899 291.815C128.127 291.683 128.5 291.682 128.729 291.814L132.821 294.176C133.049 294.308 133.049 294.524 132.821 294.655L128.707 297.03C128.479 297.162 128.105 297.162 127.876 297.031L123.787 294.687Z" fill="#1A1A1A"/>
<path d="M116.609 290.7C116.38 290.569 116.379 290.353 116.608 290.22L120.722 287.827C120.95 287.695 121.323 287.694 121.552 287.826L125.644 290.188C125.872 290.32 125.872 290.536 125.644 290.667L121.53 293.042C121.302 293.174 120.928 293.174 120.699 293.043L116.609 290.7Z" fill="#4D4D4D"/>
<path d="M116.609 290.55C116.38 290.419 116.379 290.203 116.608 290.071L120.722 287.678C120.95 287.545 121.323 287.545 121.552 287.677L125.644 290.039C125.872 290.171 125.872 290.387 125.644 290.519L121.53 292.894C121.302 293.026 120.928 293.026 120.699 292.895L116.609 290.55Z" fill="#1A1A1A"/>
<path d="M109.429 286.563C109.2 286.432 109.199 286.216 109.427 286.084L113.541 283.691C113.769 283.558 114.143 283.558 114.371 283.69L118.463 286.052C118.691 286.184 118.691 286.4 118.463 286.531L114.349 288.906C114.121 289.038 113.747 289.038 113.518 288.907L109.429 286.563Z" fill="#4D4D4D"/>
<path d="M109.429 286.413C109.2 286.282 109.199 286.066 109.427 285.934L113.541 283.541C113.769 283.408 114.143 283.408 114.371 283.54L118.463 285.902C118.691 286.034 118.691 286.25 118.463 286.381L114.349 288.756C114.121 288.888 113.747 288.889 113.518 288.757L109.429 286.413Z" fill="#1A1A1A"/>
<path d="M102.25 282.425C102.021 282.294 102.021 282.078 102.249 281.946L106.363 279.553C106.591 279.42 106.964 279.42 107.193 279.552L111.285 281.914C111.513 282.046 111.513 282.262 111.285 282.393L107.171 284.768C106.943 284.9 106.569 284.9 106.34 284.769L102.25 282.425Z" fill="#4D4D4D"/>
<path d="M102.25 282.276C102.021 282.145 102.021 281.929 102.249 281.796L106.363 279.403C106.591 279.271 106.964 279.27 107.193 279.402L111.285 281.764C111.513 281.896 111.513 282.112 111.285 282.243L107.171 284.618C106.943 284.75 106.569 284.75 106.34 284.619L102.25 282.276Z" fill="#1A1A1A"/>
<path d="M95.0707 278.288C94.8417 278.157 94.8407 277.941 95.0697 277.808L99.1837 275.415C99.4117 275.282 99.7847 275.282 100.014 275.413L104.106 277.775C104.334 277.907 104.334 278.123 104.106 278.254L99.9917 280.629C99.7637 280.761 99.3897 280.761 99.1607 280.63L95.0707 278.288Z" fill="#4D4D4D"/>
<path d="M95.0707 278.138C94.8417 278.007 94.8407 277.791 95.0697 277.658L99.1837 275.265C99.4117 275.132 99.7847 275.132 100.014 275.264L104.106 277.626C104.334 277.758 104.334 277.974 104.106 278.105L99.9917 280.48C99.7637 280.612 99.3897 280.612 99.1607 280.481L95.0707 278.138Z" fill="#1A1A1A"/>
<path d="M87.8911 274.151C87.6621 274.02 87.6611 273.804 87.8891 273.672L92.0031 271.279C92.2311 271.147 92.6041 271.146 92.8331 271.278L96.9251 273.64C97.1531 273.772 97.1531 273.988 96.9251 274.119L92.8111 276.494C92.5831 276.626 92.2091 276.627 91.9801 276.495L87.8911 274.151Z" fill="#4D4D4D"/>
<path d="M87.8911 274.001C87.6621 273.87 87.6611 273.654 87.8891 273.522L92.0031 271.129C92.2311 270.996 92.6041 270.996 92.8331 271.128L96.9251 273.49C97.1531 273.622 97.1531 273.838 96.9251 273.969L92.8111 276.344C92.5831 276.476 92.2091 276.476 91.9801 276.345L87.8911 274.001Z" fill="#1A1A1A"/>
<path d="M104.838 275.394C104.609 275.263 104.609 275.047 104.837 274.915L108.951 272.522C109.179 272.389 109.552 272.389 109.781 272.521L113.873 274.883C114.101 275.015 114.101 275.231 113.873 275.362L109.759 277.737C109.531 277.869 109.157 277.869 108.928 277.738L104.838 275.394Z" fill="#4D4D4D"/>
<path d="M104.838 275.244C104.609 275.113 104.609 274.897 104.837 274.765L108.951 272.372C109.179 272.239 109.552 272.239 109.781 272.371L113.873 274.733C114.101 274.865 114.101 275.081 113.873 275.212L109.759 277.587C109.531 277.719 109.157 277.719 108.928 277.589L104.838 275.244Z" fill="#1A1A1A"/>
<path d="M112.002 279.539C111.773 279.408 111.773 279.192 112.001 279.059L116.115 276.666C116.343 276.534 116.716 276.533 116.945 276.665L121.037 279.028C121.265 279.16 121.265 279.376 121.037 279.507L116.923 281.882C116.695 282.014 116.321 282.014 116.092 281.883L112.002 279.539Z" fill="#4D4D4D"/>
<path d="M112.002 279.389C111.773 279.258 111.773 279.042 112.001 278.91L116.115 276.517C116.343 276.384 116.716 276.384 116.945 276.516L121.037 278.878C121.265 279.01 121.265 279.226 121.037 279.357L116.923 281.732C116.695 281.864 116.321 281.864 116.092 281.733L112.002 279.389Z" fill="#1A1A1A"/>
<path d="M119.167 283.683C118.938 283.552 118.938 283.336 119.166 283.203L123.28 280.81C123.508 280.677 123.881 280.677 124.11 280.809L128.202 283.171C128.43 283.303 128.43 283.519 128.202 283.65L124.088 286.025C123.86 286.157 123.486 286.157 123.257 286.026L119.167 283.683Z" fill="#4D4D4D"/>
<path d="M119.167 283.533C118.938 283.402 118.938 283.186 119.166 283.054L123.28 280.661C123.508 280.528 123.881 280.528 124.11 280.66L128.202 283.022C128.43 283.154 128.43 283.37 128.202 283.501L124.088 285.876C123.86 286.008 123.486 286.008 123.257 285.877L119.167 283.533Z" fill="#1A1A1A"/>
<path d="M126.333 287.827C126.104 287.696 126.103 287.48 126.331 287.348L130.445 284.955C130.673 284.822 131.047 284.822 131.275 284.954L135.367 287.316C135.595 287.448 135.595 287.664 135.367 287.795L131.253 290.17C131.025 290.302 130.651 290.302 130.422 290.171L126.333 287.827Z" fill="#4D4D4D"/>
<path d="M126.333 287.677C126.104 287.546 126.103 287.33 126.331 287.197L130.445 284.804C130.673 284.672 131.047 284.671 131.275 284.803L135.367 287.165C135.595 287.297 135.595 287.513 135.367 287.644L131.253 290.019C131.025 290.151 130.651 290.152 130.422 290.02L126.333 287.677Z" fill="#1A1A1A"/>
<path d="M133.497 291.971C133.268 291.84 133.268 291.624 133.496 291.492L137.61 289.099C137.838 288.966 138.211 288.966 138.44 289.098L142.532 291.46C142.76 291.592 142.76 291.808 142.532 291.939L138.418 294.314C138.19 294.446 137.816 294.446 137.587 294.315L133.497 291.971Z" fill="#4D4D4D"/>
<path d="M133.497 291.821C133.268 291.69 133.268 291.474 133.496 291.341L137.61 288.948C137.838 288.815 138.211 288.815 138.44 288.947L142.532 291.309C142.76 291.441 142.76 291.657 142.532 291.788L138.418 294.163C138.19 294.295 137.816 294.295 137.587 294.164L133.497 291.821Z" fill="#1A1A1A"/>
<path d="M140.662 296.115C140.433 295.984 140.433 295.768 140.66 295.636L144.774 293.243C145.002 293.111 145.375 293.11 145.604 293.242L149.696 295.604C149.924 295.736 149.924 295.952 149.696 296.083L145.582 298.458C145.354 298.59 144.98 298.591 144.751 298.459L140.662 296.115Z" fill="#4D4D4D"/>
<path d="M140.662 295.965C140.433 295.834 140.433 295.618 140.66 295.486L144.774 293.093C145.002 292.96 145.375 292.96 145.604 293.092L149.696 295.454C149.924 295.586 149.924 295.802 149.696 295.933L145.582 298.308C145.354 298.44 144.98 298.44 144.751 298.309L140.662 295.965Z" fill="#1A1A1A"/>
<path d="M147.827 300.26C147.598 300.129 147.598 299.913 147.826 299.78L151.94 297.387C152.168 297.254 152.541 297.254 152.77 297.386L156.862 299.748C157.09 299.88 157.09 300.096 156.862 300.227L152.748 302.602C152.52 302.734 152.146 302.734 151.917 302.603L147.827 300.26Z" fill="#4D4D4D"/>
<path d="M147.827 300.11C147.598 299.979 147.598 299.763 147.826 299.631L151.94 297.238C152.168 297.105 152.541 297.105 152.77 297.237L156.862 299.599C157.09 299.731 157.09 299.947 156.862 300.078L152.748 302.453C152.52 302.585 152.146 302.585 151.917 302.454L147.827 300.11Z" fill="#1A1A1A"/>
<path d="M154.992 304.404C154.763 304.273 154.763 304.057 154.99 303.924L159.104 301.531C159.332 301.398 159.705 301.398 159.934 301.53L164.026 303.892C164.254 304.024 164.254 304.24 164.026 304.371L159.912 306.746C159.684 306.878 159.31 306.878 159.081 306.747L154.992 304.404Z" fill="#4D4D4D"/>
<path d="M154.992 304.254C154.763 304.123 154.763 303.907 154.99 303.775L159.104 301.382C159.332 301.25 159.705 301.249 159.934 301.381L164.026 303.743C164.254 303.875 164.254 304.091 164.026 304.222L159.912 306.597C159.684 306.729 159.31 306.73 159.081 306.598L154.992 304.254Z" fill="#1A1A1A"/>
<path d="M162.157 308.548C161.928 308.417 161.928 308.201 162.156 308.069L166.27 305.676C166.498 305.543 166.871 305.543 167.1 305.675L171.192 308.037C171.42 308.169 171.42 308.385 171.192 308.516L167.078 310.891C166.85 311.023 166.476 311.023 166.247 310.892L162.157 308.548Z" fill="#4D4D4D"/>
<path d="M162.157 308.398C161.928 308.267 161.928 308.051 162.156 307.918L166.27 305.525C166.498 305.393 166.871 305.392 167.1 305.524L171.192 307.886C171.42 308.018 171.42 308.234 171.192 308.366L167.078 310.741C166.85 310.873 166.476 310.873 166.247 310.742L162.157 308.398Z" fill="#1A1A1A"/>
<path d="M169.321 312.692C169.092 312.561 169.092 312.345 169.32 312.213L173.434 309.82C173.662 309.687 174.035 309.687 174.264 309.819L178.356 312.181C178.584 312.313 178.584 312.529 178.356 312.66L174.242 315.035C174.014 315.167 173.64 315.167 173.411 315.036L169.321 312.692Z" fill="#4D4D4D"/>
<path d="M169.321 312.543C169.092 312.412 169.092 312.196 169.32 312.063L173.434 309.67C173.662 309.537 174.035 309.537 174.264 309.669L178.356 312.031C178.584 312.163 178.584 312.379 178.356 312.51L174.242 314.885C174.014 315.017 173.64 315.017 173.411 314.886L169.321 312.543Z" fill="#1A1A1A"/>
<path d="M176.487 316.836C176.258 316.705 176.258 316.489 176.486 316.357L180.6 313.964C180.828 313.832 181.201 313.831 181.43 313.963L185.522 316.325C185.75 316.457 185.75 316.673 185.522 316.804L181.408 319.179C181.18 319.311 180.806 319.312 180.577 319.18L176.487 316.836Z" fill="#4D4D4D"/>
<path d="M176.487 316.686C176.258 316.555 176.258 316.339 176.486 316.207L180.6 313.814C180.828 313.681 181.201 313.681 181.43 313.813L185.522 316.175C185.75 316.307 185.75 316.523 185.522 316.654L181.408 319.029C181.18 319.161 180.806 319.161 180.577 319.03L176.487 316.686Z" fill="#1A1A1A"/>
<path d="M183.651 320.981C183.422 320.85 183.422 320.634 183.65 320.501L187.764 318.108C187.992 317.975 188.365 317.975 188.594 318.107L192.686 320.469C192.914 320.601 192.914 320.817 192.686 320.948L188.572 323.323C188.344 323.455 187.97 323.455 187.741 323.324L183.651 320.981Z" fill="#4D4D4D"/>
<path d="M183.651 320.831C183.422 320.7 183.422 320.484 183.65 320.351L187.764 317.958C187.992 317.825 188.365 317.825 188.594 317.957L192.686 320.319C192.914 320.451 192.914 320.667 192.686 320.798L188.572 323.173C188.344 323.305 187.97 323.305 187.741 323.174L183.651 320.831Z" fill="#1A1A1A"/>
<path d="M190.863 325.078C190.634 324.947 190.634 324.731 190.862 324.598L194.976 322.205C195.204 322.073 195.577 322.072 195.806 322.204L199.898 324.566C200.126 324.698 200.126 324.914 199.898 325.046L195.784 327.421C195.556 327.553 195.182 327.554 194.953 327.422L190.863 325.078Z" fill="#4D4D4D"/>
<path d="M190.863 324.928C190.634 324.797 190.634 324.581 190.862 324.449L194.976 322.056C195.204 321.923 195.577 321.923 195.806 322.055L199.898 324.417C200.126 324.549 200.126 324.765 199.898 324.896L195.784 327.271C195.556 327.403 195.182 327.403 194.953 327.272L190.863 324.928Z" fill="#1A1A1A"/>
<path d="M99.3514 267.16C99.5794 267.028 99.9534 267.028 100.181 267.16L106.706 270.927C106.934 271.059 106.934 271.275 106.706 271.406L102.633 273.758C102.405 273.89 102.031 273.89 101.802 273.758L95.2784 269.991C95.0504 269.859 95.0504 269.643 95.2784 269.512L99.3514 267.16Z" fill="#4D4D4D"/>
<path d="M99.3514 266.995C99.5794 266.863 99.9534 266.863 100.181 266.995L106.706 270.762C106.934 270.894 106.934 271.11 106.706 271.241L102.633 273.593C102.405 273.725 102.031 273.725 101.802 273.593L95.2784 269.826C95.0504 269.694 95.0504 269.478 95.2784 269.347L99.3514 266.995Z" fill="#1A1A1A"/>
<path d="M90.0619 283.793C89.8329 283.662 89.8319 283.446 90.0609 283.313L94.1749 280.92C94.4029 280.787 94.7759 280.787 95.0049 280.919L99.0969 283.281C99.3249 283.413 99.3249 283.629 99.0969 283.761L94.9829 286.136C94.7549 286.268 94.3809 286.268 94.1519 286.137L90.0619 283.793Z" fill="#4D4D4D"/>
<path d="M90.0619 283.643C89.8329 283.512 89.8319 283.296 90.0609 283.163L94.1749 280.77C94.4029 280.637 94.7759 280.637 95.0049 280.769L99.0969 283.131C99.3249 283.263 99.3249 283.479 99.0969 283.61L94.9829 285.985C94.7549 286.117 94.3809 286.117 94.1519 285.986L90.0619 283.643Z" fill="#1A1A1A"/>
<path d="M97.0472 287.825C96.8182 287.694 96.8173 287.478 97.0463 287.346L101.16 284.953C101.388 284.82 101.761 284.82 101.99 284.952L106.082 287.314C106.31 287.446 106.31 287.662 106.082 287.793L101.968 290.168C101.74 290.3 101.366 290.3 101.137 290.169L97.0472 287.825Z" fill="#4D4D4D"/>
<path d="M97.0472 287.676C96.8182 287.545 96.8173 287.329 97.0463 287.196L101.16 284.803C101.388 284.67 101.761 284.67 101.99 284.802L106.082 287.164C106.31 287.296 106.31 287.512 106.082 287.644L101.968 290.019C101.74 290.151 101.366 290.151 101.137 290.02L97.0472 287.676Z" fill="#1A1A1A"/>
<path d="M87.8911 291.181C87.6621 291.05 87.6611 290.834 87.8891 290.702L92.0031 288.309C92.2311 288.176 92.6041 288.176 92.8331 288.308L96.9251 290.67C97.1531 290.802 97.1531 291.018 96.9251 291.149L92.8111 293.524C92.5831 293.656 92.2091 293.656 91.9801 293.525L87.8911 291.181Z" fill="#4D4D4D"/>
<path d="M87.8911 291.032C87.6621 290.901 87.6611 290.685 87.8891 290.552L92.0031 288.159C92.2311 288.027 92.6041 288.026 92.8331 288.158L96.9251 290.52C97.1531 290.652 97.1531 290.868 96.9251 290.999L92.8111 293.374C92.5831 293.506 92.2091 293.507 91.9801 293.375L87.8911 291.032Z" fill="#1A1A1A"/>
<path d="M65.8369 287.006C65.6079 286.875 65.6079 286.659 65.8359 286.526L69.9499 284.133C70.1779 284 70.5509 284 70.7799 284.132L74.8719 286.494C75.0999 286.626 75.0999 286.842 74.8719 286.973L70.7579 289.348C70.5299 289.48 70.1559 289.48 69.9269 289.349L65.8369 287.006Z" fill="#4D4D4D"/>
<path d="M65.8369 286.856C65.6079 286.725 65.6079 286.509 65.8359 286.377L69.9499 283.984C70.1779 283.851 70.5509 283.851 70.7799 283.983L74.8719 286.345C75.0999 286.477 75.0999 286.693 74.8719 286.824L70.7579 289.199C70.5299 289.331 70.1559 289.331 69.9269 289.2L65.8369 286.856Z" fill="#1A1A1A"/>
<path d="M73.1818 291.107C72.9528 290.976 72.9528 290.76 73.1798 290.627L77.2938 288.234C77.5218 288.101 77.8948 288.101 78.1238 288.233L82.2158 290.595C82.4438 290.727 82.4438 290.943 82.2158 291.075L78.1018 293.45C77.8738 293.582 77.4998 293.582 77.2708 293.451L73.1818 291.107Z" fill="#4D4D4D"/>
<path d="M73.1818 290.957C72.9528 290.826 72.9528 290.61 73.1798 290.478L77.2938 288.085C77.5218 287.953 77.8948 287.952 78.1238 288.084L82.2158 290.446C82.4438 290.578 82.4438 290.794 82.2158 290.925L78.1018 293.3C77.8738 293.432 77.4998 293.432 77.2708 293.301L73.1818 290.957Z" fill="#1A1A1A"/>
<path d="M80.684 295.452C80.455 295.321 80.454 295.105 80.683 294.973L84.797 292.58C85.025 292.447 85.398 292.447 85.627 292.579L89.719 294.941C89.947 295.073 89.947 295.289 89.719 295.42L85.605 297.795C85.377 297.927 85.003 297.927 84.774 297.796L80.684 295.452Z" fill="#4D4D4D"/>
<path d="M80.684 295.302C80.455 295.171 80.454 294.955 80.683 294.822L84.797 292.429C85.025 292.297 85.398 292.296 85.627 292.428L89.719 294.791C89.947 294.923 89.947 295.139 89.719 295.27L85.605 297.645C85.377 297.777 85.003 297.777 84.774 297.646L80.684 295.302Z" fill="#1A1A1A"/>
<path d="M87.8911 299.677C87.6621 299.546 87.6611 299.33 87.8891 299.197L92.0031 296.804C92.2311 296.671 92.6041 296.671 92.8331 296.803L96.9251 299.165C97.1531 299.297 97.1531 299.513 96.9251 299.644L92.8111 302.019C92.5831 302.151 92.2091 302.151 91.9801 302.02L87.8911 299.677Z" fill="#4D4D4D"/>
<path d="M87.8911 299.527C87.6621 299.396 87.6611 299.18 87.8891 299.048L92.0031 296.655C92.2311 296.522 92.6041 296.522 92.8331 296.654L96.9251 299.016C97.1531 299.148 97.1531 299.364 96.9251 299.495L92.8111 301.87C92.5831 302.002 92.2091 302.003 91.9801 301.871L87.8911 299.527Z" fill="#1A1A1A"/>
<path d="M95.3234 295.376C95.0944 295.245 95.0944 295.029 95.3214 294.897L99.4354 292.504C99.6634 292.371 100.036 292.371 100.265 292.503L104.357 294.865C104.585 294.997 104.585 295.213 104.357 295.344L100.243 297.719C100.015 297.851 99.6414 297.851 99.4124 297.72L95.3234 295.376Z" fill="#4D4D4D"/>
<path d="M95.3234 295.227C95.0944 295.096 95.0944 294.88 95.3214 294.747L99.4354 292.354C99.6634 292.222 100.036 292.221 100.265 292.353L104.357 294.715C104.585 294.847 104.585 295.063 104.357 295.194L100.243 297.569C100.015 297.701 99.6414 297.701 99.4124 297.57L95.3234 295.227Z" fill="#1A1A1A"/>
<path d="M102.602 299.602C102.373 299.471 102.372 299.255 102.601 299.122L106.715 296.729C106.943 296.596 107.316 296.596 107.545 296.728L111.637 299.09C111.865 299.222 111.865 299.438 111.637 299.57L107.523 301.945C107.295 302.077 106.921 302.077 106.692 301.946L102.602 299.602Z" fill="#4D4D4D"/>
<path d="M102.602 299.452C102.373 299.321 102.372 299.105 102.601 298.973L106.715 296.58C106.943 296.447 107.316 296.447 107.545 296.579L111.637 298.941C111.865 299.073 111.865 299.289 111.637 299.42L107.523 301.795C107.295 301.927 106.921 301.927 106.692 301.796L102.602 299.452Z" fill="#1A1A1A"/>
<path d="M110.003 303.88C109.774 303.749 109.773 303.533 110.001 303.401L114.115 301.008C114.343 300.875 114.716 300.875 114.945 301.007L119.037 303.369C119.265 303.501 119.265 303.717 119.037 303.848L114.923 306.223C114.695 306.355 114.321 306.355 114.092 306.224L110.003 303.88Z" fill="#4D4D4D"/>
<path d="M110.003 303.731C109.774 303.6 109.773 303.384 110.001 303.251L114.115 300.858C114.343 300.726 114.716 300.725 114.945 300.857L119.037 303.219C119.265 303.351 119.265 303.567 119.037 303.698L114.923 306.073C114.695 306.205 114.321 306.205 114.092 306.074L110.003 303.731Z" fill="#1A1A1A"/>
<path d="M117.312 308.063C117.083 307.932 117.084 307.716 117.312 307.584L121.426 305.191C121.654 305.059 122.027 305.058 122.256 305.19L126.347 307.552C126.575 307.684 126.575 307.9 126.347 308.031L122.234 310.406C122.006 310.538 121.631 310.538 121.402 310.407L117.312 308.063Z" fill="#4D4D4D"/>
<path d="M117.312 307.913C117.083 307.782 117.084 307.566 117.312 307.434L121.426 305.041C121.654 304.908 122.027 304.908 122.256 305.04L126.347 307.402C126.575 307.534 126.575 307.75 126.347 307.881L122.234 310.256C122.006 310.388 121.631 310.389 121.402 310.257L117.312 307.913Z" fill="#1A1A1A"/>
<path d="M124.713 312.378C124.484 312.247 124.483 312.031 124.711 311.899L128.825 309.506C129.053 309.373 129.426 309.373 129.655 309.505L133.747 311.867C133.975 311.999 133.975 312.215 133.747 312.346L129.633 314.721C129.405 314.853 129.031 314.853 128.802 314.722L124.713 312.378Z" fill="#4D4D4D"/>
<path d="M124.713 312.228C124.484 312.097 124.483 311.881 124.711 311.748L128.825 309.355C129.053 309.223 129.426 309.222 129.655 309.354L133.747 311.716C133.975 311.848 133.975 312.064 133.747 312.195L129.633 314.57C129.405 314.702 129.031 314.703 128.802 314.571L124.713 312.228Z" fill="#1A1A1A"/>
<path d="M132.022 316.663C131.793 316.532 131.792 316.316 132.021 316.184L136.135 313.791C136.363 313.658 136.736 313.658 136.965 313.79L141.057 316.152C141.285 316.284 141.285 316.5 141.057 316.631L136.943 319.006C136.715 319.138 136.341 319.139 136.112 319.007L132.022 316.663Z" fill="#4D4D4D"/>
<path d="M132.022 316.513C131.793 316.382 131.792 316.166 132.021 316.033L136.135 313.64C136.363 313.508 136.736 313.507 136.965 313.639L141.057 316.001C141.285 316.133 141.285 316.349 141.057 316.48L136.943 318.855C136.715 318.987 136.341 318.987 136.112 318.856L132.022 316.513Z" fill="#1A1A1A"/>
<path d="M139.394 320.929C139.165 320.798 139.165 320.582 139.393 320.45L143.507 318.057C143.735 317.924 144.108 317.924 144.337 318.056L148.429 320.418C148.657 320.55 148.657 320.766 148.429 320.897L144.315 323.272C144.087 323.404 143.713 323.404 143.484 323.273L139.394 320.929Z" fill="#4D4D4D"/>
<path d="M139.394 320.78C139.165 320.649 139.165 320.433 139.393 320.3L143.507 317.907C143.735 317.775 144.108 317.774 144.337 317.906L148.429 320.268C148.657 320.4 148.657 320.616 148.429 320.747L144.315 323.122C144.087 323.254 143.713 323.255 143.484 323.123L139.394 320.78Z" fill="#1A1A1A"/>
<path d="M146.733 325.076C146.504 324.945 146.503 324.729 146.732 324.597L150.846 322.204C151.074 322.071 151.447 322.071 151.676 322.203L155.768 324.565C155.996 324.697 155.996 324.913 155.768 325.044L151.654 327.419C151.426 327.551 151.052 327.551 150.823 327.42L146.733 325.076Z" fill="#4D4D4D"/>
<path d="M146.733 324.926C146.504 324.795 146.503 324.579 146.732 324.446L150.846 322.053C151.074 321.92 151.447 321.92 151.676 322.052L155.768 324.414C155.996 324.546 155.996 324.762 155.768 324.893L151.654 327.268C151.426 327.4 151.052 327.4 150.823 327.269L146.733 324.926Z" fill="#1A1A1A"/>
<path d="M154.163 329.401C153.934 329.27 153.934 329.054 154.162 328.921L158.276 326.528C158.504 326.395 158.877 326.395 159.106 326.527L163.198 328.889C163.426 329.021 163.426 329.237 163.198 329.369L159.084 331.744C158.856 331.876 158.482 331.876 158.253 331.745L154.163 329.401Z" fill="#4D4D4D"/>
<path d="M154.163 329.251C153.934 329.12 153.934 328.904 154.162 328.772L158.276 326.379C158.504 326.247 158.877 326.246 159.106 326.378L163.198 328.74C163.426 328.872 163.426 329.088 163.198 329.219L159.084 331.594C158.856 331.726 158.482 331.726 158.253 331.595L154.163 329.251Z" fill="#1A1A1A"/>
<path d="M161.442 342.106C161.213 341.975 161.213 341.759 161.441 341.627L165.555 339.234C165.783 339.101 166.156 339.101 166.385 339.233L170.477 341.595C170.705 341.727 170.705 341.943 170.477 342.074L166.363 344.449C166.135 344.581 165.761 344.582 165.532 344.45L161.442 342.106Z" fill="#4D4D4D"/>
<path d="M161.442 341.956C161.213 341.825 161.213 341.609 161.441 341.477L165.555 339.084C165.783 338.951 166.156 338.951 166.385 339.083L170.477 341.445C170.705 341.577 170.705 341.793 170.477 341.924L166.363 344.299C166.135 344.431 165.761 344.431 165.532 344.3L161.442 341.956Z" fill="#1A1A1A"/>
<path d="M154.163 337.711C153.934 337.58 153.934 337.364 154.162 337.231L158.276 334.838C158.504 334.705 158.877 334.705 159.106 334.837L163.198 337.199C163.426 337.331 163.426 337.547 163.198 337.678L159.084 340.053C158.856 340.185 158.482 340.186 158.253 340.054L154.163 337.711Z" fill="#4D4D4D"/>
<path d="M154.163 337.561C153.934 337.43 153.934 337.214 154.162 337.082L158.276 334.689C158.504 334.557 158.877 334.556 159.106 334.688L163.198 337.05C163.426 337.182 163.426 337.398 163.198 337.529L159.084 339.904C158.856 340.036 158.482 340.036 158.253 339.905L154.163 337.561Z" fill="#1A1A1A"/>
<path d="M146.733 333.648C146.504 333.517 146.503 333.301 146.732 333.168L150.846 330.775C151.074 330.642 151.447 330.642 151.676 330.774L155.768 333.137C155.996 333.269 155.996 333.485 155.768 333.616L151.654 335.991C151.426 336.123 151.052 336.123 150.823 335.992L146.733 333.648Z" fill="#4D4D4D"/>
<path d="M146.733 333.498C146.504 333.367 146.503 333.151 146.732 333.019L150.846 330.626C151.074 330.494 151.447 330.493 151.676 330.625L155.768 332.987C155.996 333.119 155.996 333.335 155.768 333.466L151.654 335.841C151.426 335.973 151.052 335.973 150.823 335.842L146.733 333.498Z" fill="#1A1A1A"/>
<path d="M139.394 329.326C139.165 329.195 139.165 328.979 139.393 328.846L143.507 326.453C143.735 326.321 144.108 326.32 144.337 326.452L148.429 328.814C148.657 328.946 148.657 329.162 148.429 329.293L144.315 331.668C144.087 331.8 143.713 331.801 143.484 331.669L139.394 329.326Z" fill="#4D4D4D"/>
<path d="M139.394 329.176C139.165 329.045 139.165 328.829 139.393 328.697L143.507 326.304C143.735 326.171 144.108 326.171 144.337 326.303L148.429 328.665C148.657 328.797 148.657 329.013 148.429 329.144L144.315 331.519C144.087 331.651 143.713 331.651 143.484 331.52L139.394 329.176Z" fill="#1A1A1A"/>
<path d="M132.022 325.001C131.793 324.87 131.792 324.654 132.021 324.521L136.135 322.128C136.363 321.995 136.736 321.995 136.965 322.127L141.057 324.489C141.285 324.621 141.285 324.837 141.057 324.968L136.943 327.343C136.715 327.475 136.341 327.475 136.112 327.344L132.022 325.001Z" fill="#4D4D4D"/>
<path d="M132.022 324.851C131.793 324.72 131.792 324.504 132.021 324.371L136.135 321.978C136.363 321.846 136.736 321.845 136.965 321.977L141.057 324.339C141.285 324.471 141.285 324.687 141.057 324.818L136.943 327.193C136.715 327.325 136.341 327.326 136.112 327.194L132.022 324.851Z" fill="#1A1A1A"/>
<path d="M104.031 291.858C103.802 291.727 103.802 291.511 104.03 291.379L108.144 288.986C108.372 288.853 108.745 288.853 108.974 288.985L113.066 291.347C113.294 291.479 113.294 291.695 113.066 291.826L108.952 294.201C108.724 294.333 108.35 294.333 108.121 294.202L104.031 291.858Z" fill="#4D4D4D"/>
<path d="M104.031 291.708C103.802 291.577 103.802 291.361 104.03 291.228L108.144 288.835C108.372 288.702 108.745 288.702 108.974 288.834L113.066 291.197C113.294 291.329 113.294 291.545 113.066 291.676L108.952 294.051C108.724 294.183 108.35 294.183 108.121 294.052L104.031 291.708Z" fill="#1A1A1A"/>
<path d="M111.016 295.89C110.787 295.759 110.786 295.543 111.014 295.411L115.128 293.018C115.356 292.885 115.729 292.885 115.958 293.016L120.05 295.378C120.278 295.51 120.278 295.726 120.05 295.857L115.936 298.232C115.708 298.364 115.334 298.365 115.105 298.233L111.016 295.89Z" fill="#4D4D4D"/>
<path d="M111.016 295.741C110.787 295.61 110.786 295.394 111.014 295.261L115.128 292.868C115.356 292.735 115.729 292.735 115.958 292.867L120.05 295.229C120.278 295.361 120.278 295.577 120.05 295.708L115.936 298.083C115.708 298.215 115.334 298.215 115.105 298.084L111.016 295.741Z" fill="#1A1A1A"/>
<path d="M118.001 299.923C117.772 299.792 117.771 299.576 117.999 299.444L122.113 297.051C122.341 296.918 122.714 296.918 122.943 297.05L127.035 299.412C127.263 299.544 127.263 299.76 127.035 299.891L122.921 302.266C122.693 302.398 122.319 302.398 122.09 302.267L118.001 299.923Z" fill="#4D4D4D"/>
<path d="M118.001 299.773C117.772 299.642 117.771 299.426 117.999 299.293L122.113 296.9C122.341 296.767 122.714 296.767 122.943 296.899L127.035 299.261C127.263 299.393 127.263 299.609 127.035 299.74L122.921 302.115C122.693 302.247 122.319 302.247 122.09 302.116L118.001 299.773Z" fill="#1A1A1A"/>
<path d="M124.985 303.956C124.756 303.825 124.756 303.609 124.983 303.477L129.097 301.084C129.325 300.951 129.698 300.951 129.927 301.083L134.019 303.445C134.247 303.577 134.247 303.793 134.019 303.924L129.905 306.299C129.677 306.431 129.303 306.431 129.074 306.3L124.985 303.956Z" fill="#4D4D4D"/>
<path d="M124.985 303.806C124.756 303.675 124.756 303.459 124.983 303.326L129.097 300.933C129.325 300.8 129.698 300.8 129.927 300.931L134.019 303.294C134.247 303.426 134.247 303.642 134.019 303.773L129.905 306.148C129.677 306.28 129.303 306.281 129.074 306.149L124.985 303.806Z" fill="#1A1A1A"/>
<path d="M131.971 307.988C131.742 307.857 131.742 307.641 131.97 307.509L136.084 305.116C136.312 304.983 136.685 304.983 136.914 305.115L141.006 307.477C141.234 307.609 141.234 307.825 141.006 307.956L136.892 310.331C136.664 310.463 136.29 310.463 136.061 310.332L131.971 307.988Z" fill="#4D4D4D"/>
<path d="M131.971 307.838C131.742 307.707 131.742 307.491 131.97 307.358L136.084 304.965C136.312 304.832 136.685 304.832 136.914 304.964L141.006 307.326C141.234 307.458 141.234 307.674 141.006 307.805L136.892 310.18C136.664 310.312 136.29 310.312 136.061 310.181L131.971 307.838Z" fill="#1A1A1A"/>
<path d="M138.955 312.021C138.726 311.89 138.725 311.674 138.953 311.542L143.067 309.149C143.295 309.016 143.669 309.016 143.897 309.148L147.989 311.51C148.217 311.642 148.217 311.858 147.989 311.989L143.875 314.364C143.647 314.496 143.273 314.497 143.044 314.365L138.955 312.021Z" fill="#4D4D4D"/>
<path d="M138.955 311.871C138.726 311.74 138.725 311.524 138.953 311.391L143.067 308.998C143.295 308.865 143.669 308.865 143.897 308.997L147.989 311.359C148.217 311.491 148.217 311.707 147.989 311.838L143.875 314.213C143.647 314.345 143.273 314.345 143.044 314.214L138.955 311.871Z" fill="#1A1A1A"/>
<path d="M145.939 316.053C145.71 315.922 145.71 315.706 145.938 315.574L150.052 313.181C150.28 313.048 150.653 313.048 150.882 313.18L154.974 315.542C155.202 315.674 155.202 315.89 154.974 316.021L150.86 318.396C150.632 318.528 150.258 318.528 150.029 318.397L145.939 316.053Z" fill="#4D4D4D"/>
<path d="M145.939 315.903C145.71 315.772 145.71 315.556 145.938 315.423L150.052 313.03C150.28 312.897 150.653 312.897 150.882 313.029L154.974 315.391C155.202 315.523 155.202 315.739 154.974 315.87L150.86 318.245C150.632 318.377 150.258 318.378 150.029 318.246L145.939 315.903Z" fill="#1A1A1A"/>
<path d="M152.923 320.086C152.694 319.955 152.693 319.739 152.922 319.607L157.036 317.214C157.264 317.081 157.637 317.081 157.866 317.213L161.958 319.575C162.186 319.707 162.186 319.923 161.958 320.054L157.844 322.429C157.616 322.561 157.242 322.561 157.013 322.43L152.923 320.086Z" fill="#4D4D4D"/>
<path d="M152.923 319.936C152.694 319.805 152.693 319.589 152.922 319.456L157.036 317.063C157.264 316.93 157.637 316.93 157.866 317.062L161.958 319.424C162.186 319.556 162.186 319.772 161.958 319.903L157.844 322.278C157.616 322.41 157.242 322.41 157.013 322.279L152.923 319.936Z" fill="#1A1A1A"/>
<path d="M159.909 324.118C159.68 323.987 159.679 323.771 159.907 323.639L164.021 321.246C164.249 321.113 164.622 321.113 164.851 321.245L168.943 323.607C169.171 323.739 169.171 323.955 168.943 324.086L164.829 326.461C164.601 326.593 164.227 326.594 163.998 326.462L159.909 324.118Z" fill="#4D4D4D"/>
<path d="M159.909 323.969C159.68 323.838 159.679 323.622 159.907 323.489L164.021 321.096C164.249 320.963 164.622 320.963 164.851 321.095L168.943 323.457C169.171 323.589 169.171 323.805 168.943 323.936L164.829 326.311C164.601 326.443 164.227 326.443 163.998 326.312L159.909 323.969Z" fill="#1A1A1A"/>
<path d="M166.893 328.151C166.664 328.02 166.664 327.804 166.892 327.672L171.006 325.279C171.234 325.146 171.607 325.146 171.836 325.278L175.928 327.64C176.156 327.772 176.156 327.988 175.928 328.119L171.814 330.494C171.586 330.626 171.212 330.626 170.983 330.495L166.893 328.151Z" fill="#4D4D4D"/>
<path d="M166.893 328.001C166.664 327.87 166.664 327.654 166.892 327.521L171.006 325.128C171.234 324.995 171.607 324.995 171.836 325.127L175.928 327.489C176.156 327.621 176.156 327.837 175.928 327.968L171.814 330.343C171.586 330.475 171.212 330.475 170.983 330.344L166.893 328.001Z" fill="#1A1A1A"/>
<path d="M84.7567 275.505C84.9847 275.373 85.3587 275.373 85.5867 275.505L92.1117 279.272C92.3397 279.404 92.3397 279.619 92.1117 279.751L88.0387 282.102C87.8107 282.234 87.4367 282.234 87.2087 282.102L80.6837 278.335C80.4557 278.203 80.4557 277.987 80.6837 277.856L84.7567 275.505Z" fill="#4D4D4D"/>
<path d="M84.7567 275.341C84.9847 275.209 85.3587 275.209 85.5867 275.341L92.1117 279.108C92.3397 279.24 92.3397 279.456 92.1117 279.587L88.0387 281.939C87.8107 282.071 87.4367 282.071 87.2087 281.939L80.6837 278.172C80.4557 278.04 80.4557 277.824 80.6837 277.693L84.7567 275.341Z" fill="#1A1A1A"/>
<path d="M185.295 325.077C185.523 324.945 185.897 324.945 186.125 325.077L192.65 328.844C192.878 328.976 192.878 329.192 192.65 329.323L188.577 331.675C188.349 331.807 187.975 331.807 187.746 331.675L181.221 327.908C180.993 327.776 180.993 327.56 181.221 327.429L185.295 325.077Z" fill="#4D4D4D"/>
<path d="M185.295 324.912C185.523 324.78 185.897 324.78 186.125 324.912L192.65 328.679C192.878 328.811 192.878 329.027 192.65 329.158L188.577 331.51C188.349 331.642 187.975 331.642 187.746 331.51L181.221 327.743C180.993 327.611 180.993 327.395 181.221 327.264L185.295 324.912Z" fill="#1A1A1A"/>
<path d="M177.949 329.324C178.177 329.192 178.551 329.192 178.78 329.324L185.305 333.091C185.533 333.223 185.533 333.439 185.305 333.571L181.232 335.922C181.004 336.054 180.63 336.054 180.401 335.922L173.876 332.155C173.648 332.023 173.648 331.807 173.876 331.676L177.949 329.324Z" fill="#4D4D4D"/>
<path d="M177.949 329.16C178.177 329.028 178.551 329.028 178.78 329.16L185.305 332.927C185.533 333.059 185.533 333.275 185.305 333.406L181.232 335.758C181.004 335.89 180.63 335.89 180.401 335.758L173.876 331.991C173.648 331.859 173.648 331.643 173.876 331.511L177.949 329.16Z" fill="#1A1A1A"/>
<path d="M77.332 279.853C77.56 279.721 77.934 279.721 78.162 279.853L89.59 286.451C89.818 286.583 89.818 286.799 89.59 286.93L85.517 289.282C85.289 289.414 84.915 289.414 84.686 289.283L73.21 282.711C72.981 282.58 72.981 282.365 73.209 282.233L77.332 279.853Z" fill="#4D4D4D"/>
<path d="M77.332 279.688C77.56 279.556 77.934 279.556 78.162 279.688L89.59 286.286C89.818 286.418 89.818 286.634 89.59 286.765L85.517 289.117C85.289 289.249 84.915 289.25 84.686 289.119L73.21 282.547C72.981 282.416 72.981 282.201 73.209 282.069L77.332 279.688Z" fill="#1A1A1A"/>
<path d="M165.535 330.789C165.763 330.657 166.137 330.657 166.365 330.789L177.793 337.387C178.021 337.519 178.021 337.735 177.793 337.866L173.72 340.218C173.492 340.35 173.118 340.35 172.889 340.219L161.413 333.647C161.184 333.516 161.184 333.301 161.412 333.169L165.535 330.789Z" fill="#4D4D4D"/>
<path d="M165.535 330.624C165.763 330.492 166.137 330.492 166.365 330.624L177.793 337.222C178.021 337.354 178.021 337.57 177.793 337.701L173.72 340.053C173.492 340.185 173.118 340.186 172.889 340.054L161.413 333.482C161.184 333.351 161.184 333.136 161.412 333.004L165.535 330.624Z" fill="#1A1A1A"/>
<path d="M95.3243 303.901C95.0963 303.769 95.0963 303.553 95.3243 303.422L99.3973 301.07C99.6253 300.938 99.9993 300.938 100.227 301.07L133.72 320.407C133.948 320.539 133.948 320.755 133.72 320.886L129.644 323.236C129.416 323.368 129.042 323.368 128.813 323.236L95.3243 303.901Z" fill="#4D4D4D"/>
<path d="M95.3243 303.752C95.0963 303.62 95.0963 303.404 95.3243 303.273L99.3973 300.921C99.6253 300.789 99.9993 300.789 100.227 300.921L133.72 320.259C133.948 320.391 133.948 320.606 133.72 320.738L129.644 323.088C129.416 323.22 129.042 323.22 128.813 323.088L95.3243 303.752Z" fill="#1A1A1A"/>
<path d="M244.681 356.597C244.681 356.597 256.511 351.186 270.816 341.508C270.816 341.508 258.9 337.077 244.681 356.597Z" fill="#CCCCCC"/>
<path d="M253.333 329.275C248.657 329.754 245.581 330.843 235.939 336.41C226.297 341.977 227.109 346.452 227.109 346.452C227.109 346.452 226.358 351.065 231.569 354.074C231.569 354.074 239.857 359.383 244.681 356.597C249.505 353.812 258.51 342.558 270.816 341.508C270.816 341.508 276.237 339.488 266.534 333.886C266.534 333.886 259.302 328.664 253.333 329.275Z" fill="#F2F2F2"/>
<path d="M240.031 347.865C240.031 348.691 239.202 349.361 238.179 349.361C237.156 349.361 236.327 348.691 236.327 347.865C236.327 347.039 237.156 346.369 238.179 346.369C239.202 346.37 240.031 347.039 240.031 347.865Z" fill="#CCCCCC"/>
<path d="M120.161 124.895V97.27L48.3887 138.707V166.332L120.161 124.895Z" fill="#F30078"/>
<path d="M48.3892 138.707L42.4082 135.254L113.57 93.464L120.161 97.27L48.3892 138.707Z" fill="#F361A9"/>
<path d="M42.4082 135.254V162.879L48.3892 166.332V138.707L42.4082 135.254Z" fill="#96005D"/>
<path d="M263.706 111.082V69.644L299.592 90.363V131.801L263.706 111.082Z" fill="#8CC63F"/>
<path d="M263.706 69.6441L268.943 66.6211L304.555 87.4981L299.592 90.3631L263.706 69.6441Z" fill="#BAEB7A"/>
<path d="M304.555 87.498V128.936L299.592 131.801V90.363L304.555 87.498Z" fill="#67912F"/>
<path d="M341.459 307.346V265.909L305.573 286.628V328.065L341.459 307.346Z" fill="#3ACAFF"/>
<path d="M341.459 265.909L336.222 262.885L300.61 283.762L305.573 286.628L341.459 265.909Z" fill="#7DDCFF"/>
<path d="M300.61 283.762V325.2L305.573 328.065V286.628L300.61 283.762Z" fill="#0B4FE8"/>
<path d="M291.503 102.215C284.467 93.4601 276.636 89.8401 272.387 92.1391L270.886 89.6061C275.83 86.9391 284.996 90.8431 293.69 101.009L291.503 102.215ZM290.409 102.819L288.215 104.03C283.61 97.7181 278.016 94.7941 274.954 96.4641L273.199 93.5051C277.072 91.4051 284.19 94.8331 290.409 102.819ZM287.116 104.637L284.915 105.852C282.661 102.433 279.647 100.652 277.978 101.566L275.904 98.0681C278.529 96.6371 283.305 99.2381 287.116 104.637ZM281.304 103.833C283.156 104.982 284.938 107.762 285.212 110.096C285.501 112.564 283.994 113.403 281.935 111.915C279.982 110.504 278.399 107.605 278.313 105.478C278.231 103.456 279.539 102.738 281.304 103.833Z" fill="white"/>
<path d="M200.962 362.576L201.459 363.735L193.685 365.467L187.325 365.53L190.501 363.674L192.887 364.37L199.957 358.489V350.642L190.096 351.611L183.916 352.707L178.462 360.16L178.478 360.165C175.548 361.709 173.748 363.75 173.748 365.996C173.748 367.383 174.446 368.688 175.656 369.85L146.455 387.466L146.634 385.802L137.733 386.91L138.195 393.204C137.985 393.589 137.813 393.99 137.733 394.417C137.521 395.548 137.8 396.683 138.519 397.614C139.434 398.797 140.913 399.48 142.529 399.48C142.652 399.48 142.777 399.477 142.902 399.468H142.903C143.753 399.412 144.582 399.163 145.299 398.746L185.507 375.428C186.046 375.116 186.507 374.746 186.89 374.338C188.521 374.565 190.241 374.692 192.026 374.692C201.57 374.692 209.388 371.225 210.232 366.79L210.316 366.764V358.489L200.962 362.576Z" fill="#9E3B18"/>
<path d="M206.608 353.226L192.636 361.372L187.325 358.023L199.957 350.642C197.553 350.092 194.861 349.781 192.026 349.781C181.93 349.781 173.748 353.681 173.748 358.489C173.748 359.876 174.446 361.181 175.656 362.343L139.891 383.92C138.747 384.61 137.961 385.7 137.733 386.91C137.521 388.041 137.8 389.176 138.519 390.107C139.434 391.29 140.913 391.973 142.529 391.973C142.652 391.973 142.777 391.969 142.902 391.961H142.903C143.753 391.905 144.582 391.656 145.299 391.239L185.507 367.921C186.046 367.609 186.507 367.239 186.89 366.831C188.521 367.058 190.241 367.185 192.026 367.185C202.134 367.185 210.316 363.297 210.316 358.489C210.316 356.516 208.941 354.697 206.608 353.226Z" fill="#F15A24"/>
<path d="M108.199 242.302L48.539 276.832L0.541016 249.208L60.351 214.676L108.199 242.302Z" fill="#323868"/>
<path d="M108.199 235.13L48.539 269.661L0.541016 242.036L60.351 207.505L108.199 235.13Z" fill="#E6E6E7"/>
<path d="M48.5391 269.661V273.379L108.199 238.849V235.13L48.5391 269.661Z" fill="#B2B2B5"/>
<path d="M0.541016 242.036V245.755L48.539 273.379V269.661L0.541016 242.036Z" fill="#8C8C91"/>
<path d="M67.9615 219.063L86.9045 229.996L80.5895 233.644L61.6475 222.708L67.9615 219.063Z" fill="#E6E6E6"/>
<path d="M69.4423 239.482C69.4473 239.365 69.4693 239.252 69.4693 239.134C69.4693 239.016 69.4483 238.903 69.4423 238.786V230.732H64.0223C60.8333 228.712 56.5053 227.464 51.7283 227.464C46.9513 227.464 42.6243 228.712 39.4343 230.732H33.9873V239.767H34.0363C34.5393 245.916 42.2553 250.804 51.7283 250.804C61.2013 250.804 68.9173 245.916 69.4203 239.767H69.4423V239.482Z" fill="#0071BC"/>
<path d="M69.4663 230.734C69.4663 237.181 61.5233 242.397 51.7263 242.397C41.9293 242.397 33.9863 237.181 33.9863 230.734C33.9863 227.959 35.4573 225.411 37.9213 223.401C41.1753 220.745 46.1513 219.059 51.7253 219.059C52.6703 219.059 53.5913 219.107 54.5003 219.202C62.9833 220.076 69.4663 224.908 69.4663 230.734Z" fill="#39B54A"/>
<path d="M54.5019 219.202L51.7269 230.733L37.9229 223.4C41.1769 220.744 46.1529 219.058 51.7269 219.058C52.6719 219.059 53.5929 219.107 54.5019 219.202Z" fill="#ED1C24"/>
<path d="M12.5029 242.252V237.494L16.6489 239.888V244.616L12.5029 242.252Z" fill="#ED1C24"/>
<path d="M12.5029 237.494L16.6489 235.13L20.7439 237.494L16.6489 239.888L12.5029 237.494Z" fill="#29ABE2"/>
<path d="M20.7444 237.494V242.252L16.6494 244.616V239.888L20.7444 237.494Z" fill="#F7931E"/>
<path d="M19.124 246.139V241.382L23.271 243.775V248.504L19.124 246.139Z" fill="#ED1C24"/>
<path d="M19.124 241.382L23.271 239.017L27.365 241.382L23.271 243.775L19.124 241.382Z" fill="#29ABE2"/>
<path d="M27.3655 241.382V246.139L23.2715 248.504V243.775L27.3655 241.382Z" fill="#F7931E"/>
<path d="M30.7613 306.534C17.1703 306.534 6.15234 313.233 6.15234 321.497C6.15234 329.761 17.1703 336.46 30.7613 336.46C44.3523 336.46 55.3703 329.761 55.3703 321.497C55.3703 313.233 44.3523 306.534 30.7613 306.534ZM30.7613 330.419C22.6573 330.419 16.0883 326.425 16.0883 321.497C16.0883 316.57 22.6573 312.575 30.7613 312.575C38.8653 312.575 45.4343 316.569 45.4343 321.497C45.4343 326.424 38.8653 330.419 30.7613 330.419Z" fill="#E6E6E7"/>
<path d="M57.9049 337.563L57.9099 337.554L57.8649 337.529C57.6409 337.348 57.3989 337.192 57.1189 337.095C57.1049 337.09 57.0899 337.091 57.0759 337.086L51.1919 333.785C50.9819 333.625 50.7569 333.485 50.4999 333.397C48.9239 332.855 47.1019 333.999 46.4309 335.951C45.8579 337.618 46.3159 339.328 47.4419 340.132L47.4409 340.135L47.4569 340.144C47.5559 340.214 47.6659 340.267 47.7749 340.322L54.0909 343.854C54.1669 343.907 54.2519 343.946 54.3339 343.99L54.4299 344.044L54.4329 344.039C54.5189 344.081 54.5979 344.133 54.6899 344.165C56.2659 344.707 58.0879 343.563 58.7589 341.611C59.3029 340.027 58.9109 338.411 57.9049 337.563Z" fill="#2E3192"/>
<path d="M82.057 350.949L82.063 350.937L81.993 350.895C81.888 350.82 81.775 350.758 81.661 350.696L58.46 336.771C58.159 336.512 57.827 336.292 57.441 336.159C55.447 335.474 53.142 336.92 52.293 339.389C51.444 341.859 52.373 344.416 54.367 345.101L77.089 358.788C77.392 359.051 77.728 359.274 78.118 359.408C80.112 360.093 82.417 358.647 83.266 356.178C83.978 354.107 83.427 351.987 82.057 350.949Z" fill="#8C8C91"/>
<path d="M315.013 305.63L320.807 304.358L321.197 307.032L313.496 308.611L312.915 305.497L319.481 295.273L319.911 298.217L315.013 305.63Z" fill="white"/>
<path d="M321.716 310.938L324.098 285.034L326.58 283.037L323.947 309.152L321.716 310.938Z" fill="white"/>
<path d="M332.491 291.395L326.744 292.515L326.414 289.508L334.183 288.236L334.432 291.635L327.743 301.614L327.438 298.839L332.491 291.395Z" fill="white"/>
<path d="M60.0797 151.288L58.9736 144.66L58.1987 152.297L56.8837 153.003L55.0146 143.631L56.3627 142.885L57.5186 149.907L58.2957 141.815L59.5437 141.125L60.7137 148.179L61.5036 140.041L62.8226 139.312L61.4016 150.58L60.0797 151.288Z" fill="white"/>
<path d="M69.69 146.132L68.542 139.416L67.75 147.173L66.394 147.9L64.457 138.407L65.847 137.638L67.046 144.754L67.84 136.536L69.126 135.824L70.34 142.972L71.147 134.706L72.507 133.954L71.053 145.402L69.69 146.132Z" fill="white"/>
<path d="M79.6004 140.814L78.4084 134.007L77.5984 141.888L76.2004 142.638L74.1924 133.02L75.6254 132.227L76.8704 139.438L77.6814 131.089L79.0084 130.355L80.2694 137.599L81.0934 129.201L82.4954 128.425L81.0064 140.059L79.6004 140.814Z" fill="white"/>
<path d="M84.2738 137.126C84.2948 137.891 84.0378 138.558 83.6568 138.762C83.2768 138.966 82.9988 138.588 82.9778 137.824C82.9568 137.076 83.2068 136.414 83.5858 136.209C83.9668 136.003 84.2528 136.377 84.2738 137.126Z" fill="white"/>
<path opacity="0.25" d="M276.912 457.333C284.751 457.333 291.107 453.689 291.107 449.193C291.107 444.697 284.751 441.053 276.912 441.053C269.072 441.053 262.717 444.697 262.717 449.193C262.717 453.689 269.072 457.333 276.912 457.333Z" fill="#58585E"/>
<path d="M281.954 310.618L278.609 303.111C278.609 303.111 277.532 300.131 278.225 299.982C278.917 299.833 279.999 299.742 280.708 301.787C280.708 301.787 281.084 297.582 281.001 296.291C280.918 294.999 280.892 291.897 281.613 291.948C282.334 291.999 283.004 292.124 283.086 294.312C283.167 296.499 284.055 299.17 284.819 299.626C285.584 300.082 287.226 301.392 287.405 302.195C287.584 302.998 287.056 309.599 287.056 309.599L281.954 310.618Z" fill="#FCD3B7"/>
<path d="M265.343 394.617C265.343 394.617 267.824 418.473 268.185 421.995C268.546 425.517 273.207 449.145 273.207 449.145C273.207 449.145 274.456 449.347 277.153 448.921C277.153 448.921 276.345 420.765 276.661 418.991C276.977 417.217 278.009 404.212 278.009 404.212L282.963 445.272C282.963 445.272 284.856 446.53 287.63 444.625C287.63 444.625 287.744 405.809 287.52 402.449C287.296 399.09 287.757 389.776 287.296 384.634L265.343 394.617Z" fill="#8C8C91"/>
<path d="M262 396.639L261.012 400.336C261.012 400.336 262.156 402.443 262.828 402.284C263.5 402.125 266.602 403.068 267.113 402.284C267.625 401.5 266.039 396.34 266.039 396.34L263.041 395.972L262 396.639Z" fill="#FCD3B7"/>
<path d="M268.265 351.489C268.265 351.489 262.647 355.861 262.011 357.618C261.375 359.375 259.715 366.56 260.467 376.938C261.219 387.316 262 396.639 262 396.639C262 396.639 264.454 397.305 266.039 396.34L266.625 394.165C266.625 394.165 282.34 393.895 287.295 384.635C287.295 384.635 287.55 357.491 287.275 351.745C287.275 351.745 290.065 331.818 290.095 330.597C290.125 329.376 287.612 312.019 287.431 309.135C287.431 309.135 283.409 307.361 281.954 310.618C281.954 310.618 283.233 322.27 282.866 324.635C282.499 327 278.978 346.725 278.978 346.725L268.265 351.489Z" fill="#8CC63F"/>
<path d="M273.937 447.553C273.937 447.553 273.041 448.987 272.021 448.696C271.001 448.405 268.169 446.351 266.889 446.298C265.609 446.245 265.457 451.822 268.67 451.682C271.883 451.542 273.575 451.422 273.946 451.66L273.927 452.401L276.46 452.819C276.46 452.819 277.229 451.659 277.154 448.922L273.937 447.553Z" fill="#B2B2B5"/>
<path d="M283.123 444.719C283.123 444.719 282.443 445.5 281.143 444.719C279.844 443.938 277.928 443.155 277.277 443.839C276.625 444.523 276.294 448.711 281.291 448.653C281.291 448.653 282.315 448.833 284.972 448.272V449.388C284.972 449.388 286.257 449.471 287.629 448.73C287.629 448.73 288.067 446.294 287.659 443.675L283.123 444.719Z" fill="#B2B2B5"/>
<path d="M263.467 334.028C263.467 334.028 264.665 336.178 264.5 337.422C264.334 338.667 263.793 342.715 264.814 344.483C265.835 346.25 266.008 347.568 268.088 348.784L271.002 349.306C271.002 349.306 274.877 348.016 273.231 338.633C273.229 338.633 270.683 330.556 263.467 334.028Z" fill="#FCD3B7"/>
<path d="M266.228 327.908C266.228 327.908 263.061 328.375 262.828 329.968C262.594 331.561 263.011 333.964 264.214 335.024C265.417 336.084 265.54 338.27 266.229 338.302C266.917 338.334 267.59 337.27 268.087 338.302C268.584 339.334 269.053 342.103 267.652 342.01C266.251 341.917 265.699 343.702 266.183 344.976C266.667 346.25 269.503 349.577 267.96 352.413C266.417 355.25 264.657 361.216 265.787 365.4C266.917 369.584 269.089 375.163 282.52 370.877C294.209 367.147 291.25 356.722 287.328 353.336C283.406 349.95 279.543 346.154 279.813 342.994C280.083 339.834 283.354 330.096 276.927 325.298C270.5 320.5 267.124 325.983 266.228 327.908Z" fill="#251404"/>
<path d="M267.583 390C267.583 390 269.269 376.25 268.551 372.083C268.551 372.083 270.917 376.667 267.583 390Z" fill="#6FAB20"/>
<path opacity="0.25" d="M217.98 97.81L212.3 100.94C208.48 107.01 203.25 101.88 200.25 99.6C197.25 97.32 197.71 94.81 197.71 94.81L202.93 89.27L217.98 97.81Z" fill="#241033"/>
<path d="M198.03 54.795C198.03 54.795 198.737 78.822 200.368 89.099C200.368 89.099 201.17 91.485 205.335 91.243L205.442 64.814L208.397 92.546C208.397 92.546 208.431 95.469 213.09 94.672L216.222 56.268L198.03 54.795Z" fill="#B2B2B5"/>
<path d="M201.352 21.821C201.352 21.821 198.772 22.217 197.699 26.859C196.625 31.5 196 42.19 196 42.19L189.814 41.772L189.621 43.966L199.741 48.792L201.352 21.821Z" fill="#ED1E79"/>
<path d="M201.352 21.821C201.352 21.821 198.772 22.217 197.699 26.859C196.625 31.5 196 42.19 196 42.19L189.814 41.772L189.621 43.966L199.741 48.792L201.352 21.821Z" fill="#CC1A68"/>
<path d="M204.297 21.9811C204.297 21.9811 215.576 23.3291 217.616 27.3211C219.655 31.3131 219.021 45.9441 219.021 45.9441L217.596 58.9921C217.596 58.9921 206.497 60.6001 196.998 55.8001L197.293 33.6211C197.293 33.6211 198.578 23.8911 201.351 21.8201L204.297 21.9811Z" fill="#ED1E79"/>
<path d="M214.302 27.7411C214.302 27.7411 211.603 31.8161 213.03 42.0001L213.458 47.6351L216 48.3331L217.098 40.5361L216.223 28.0831L214.302 27.7411Z" fill="#CC1A68"/>
<path d="M212.869 24.23C210.239 26.7 206.399 25.36 206.399 25.36L206.049 23.47L205.609 21.13L210.029 18.36L211.189 17.63L212.869 24.23Z" fill="#FCD3B7"/>
<path d="M210.769 19.3101C210.769 19.3101 209.119 22.7901 208.289 23.0801C207.719 23.2901 206.949 23.8401 206.049 23.4701L205.609 21.1301L210.029 18.3601L210.769 19.3101Z" fill="#EDA36F"/>
<path d="M201.965 9.687C201.965 9.687 201.435 15.256 202.491 17.666C203.546 20.076 205.742 22.31 206.99 21.94C208.238 21.57 210.901 20.076 212.393 16.785L213.379 12.897C213.379 12.897 213.937 11.155 213.031 8.14C213.031 8.14 211.491 4.836 206.935 5.608C206.935 5.608 202.181 7.124 201.965 9.687Z" fill="#FCD3B7"/>
<path d="M199.137 7.05505C199.137 7.05505 200.193 10.684 202.596 10.904C204.999 11.124 206 11.358 206 11.358L208.255 11.01L209.014 13.336L209.965 13.002C209.965 13.002 209.441 10.562 210.221 10.282C211 10.001 212.094 11.463 212.108 12.899C212.125 14.585 212.006 15.949 210.753 15.913L211.19 17.63L211.469 18.728C211.469 18.728 213.427 18.477 213.852 18.024C214.984 16.817 215.025 12.85 214.887 11.488C214.75 10.127 213.316 2.24305 210.221 0.810047C210.221 0.810047 207.045 -0.306952 204.773 2.03505C204.773 2.03305 199.4 3.73605 199.137 7.05505Z" fill="#251404"/>
<path d="M200.368 89.099C200.368 89.099 198.953 90.812 197.328 91.624C195.703 92.437 194.948 94.1 195.223 95.487C195.499 96.875 200.16 96.156 201.735 94.855L204.036 92.869V93.959L205.238 93.47L205.334 91.242L203.755 88.792L200.368 89.099Z" fill="#04040B"/>
<path d="M208.741 93.17C208.741 93.17 208.246 94.607 207.125 95.54C206.004 96.472 203.791 98.947 204.036 99.901C204.281 100.855 206.46 102.604 208.157 101.079C209.854 99.554 210.977 98.739 211.576 97.274L211.767 98.071L213.193 96.818L212.8 93.96L208.741 93.17Z" fill="#04040B"/>
<path d="M202.194 48.7731C202.393 47.7051 202.458 46.5761 202.39 45.4271L204.732 44.1251L204.206 41.8281L203.666 39.4711L201.022 39.8231C200.531 38.7261 199.92 37.7091 199.205 36.8201L199.899 33.1931L198.301 32.0081L196.726 30.8401L195.08 31.5541L195.443 33.2691L195.694 33.2381L195.399 33.9241C194.55 33.6151 193.713 33.5111 192.919 33.5991L191.6 30.3331L191.392 30.4561L191.436 30.3311L189.971 31.0511L190.016 31.2691L188.951 31.8991L189.61 35.3441C189.062 35.9401 188.595 36.6761 188.227 37.5291L186.253 36.4801L184.703 37.1481L185.943 38.2151L185.926 38.3091L185.613 40.0631L187.32 41.9741C187.297 42.9691 187.375 43.9721 187.545 44.9541L186.142 45.9891L186.729 47.7311L187.305 49.4381L189.001 49.4011C189.421 50.2371 189.914 51.0191 190.471 51.7221L190.197 53.9871L191.187 54.8551L190.509 55.1681L191.09 56.5181L192.486 55.9961L193.429 54.2821C194.115 54.6491 194.809 54.8831 195.491 54.9831L196.269 56.7931L196.106 56.7761L196.306 56.8801L196.557 57.4641L197.243 57.3661L197.716 57.6111L199.127 57.0961L198.722 54.3931C199.164 54.1431 199.582 53.8161 199.969 53.4191L201.235 54.7391L202.686 54.2031L203.421 52.6251L204.191 50.9721L202.194 48.7731ZM197.986 48.1761C197.1 50.6041 194.87 51.1481 192.985 49.5561C191.133 47.9921 190.137 44.8041 190.765 42.2681C191.436 39.5611 193.697 38.5561 195.812 40.2251C197.97 41.9281 198.933 45.5771 197.986 48.1761Z" fill="#1579B0"/>
<path d="M200.693 49.348C200.881 48.288 200.935 47.168 200.857 46.027L203.177 44.735L202.631 42.456L202.071 40.117L199.441 40.467C198.942 39.378 198.324 38.37 197.604 37.487L198.261 33.889L196.658 32.713L195.079 31.555L193.787 34.614C192.939 34.307 192.105 34.204 191.315 34.291L189.972 31.052L188.632 31.845L187.349 32.604L188.037 36.021C187.497 36.612 187.039 37.342 186.68 38.189L184.704 37.148L184.395 38.964L184.099 40.704L185.816 42.6C185.802 43.587 185.889 44.583 186.067 45.557L184.678 46.584L185.279 48.313L185.868 50.008L187.557 49.971C187.983 50.801 188.481 51.577 189.043 52.276L188.791 54.525L189.934 55.517L191.09 56.52L192.013 54.818C192.699 55.183 193.393 55.415 194.074 55.514L195.159 57.977L196.413 57.798L197.715 57.612L197.287 54.927C197.911 54.574 198.488 54.072 198.992 53.424L201.234 54.739L201.952 53.172L202.704 51.531L200.693 49.348ZM191.527 50.125C189.668 48.573 188.646 45.408 189.249 42.892C189.892 40.206 192.135 39.209 194.257 40.865C196.422 42.555 197.416 46.177 196.496 48.756C195.636 51.165 193.42 51.705 191.527 50.125Z" fill="#1CA0E8"/>
<path d="M185.788 39.855C185.788 39.855 184.82 40.3971 184.61 41.4701C184.4 42.5431 184.671 44.447 184.987 45.22C185.303 45.994 186.677 46.343 187.092 46.126C187.507 45.909 187.769 42.8691 187.437 41.3661C187.106 39.863 186.498 39.417 185.788 39.855Z" fill="#FCD3B7"/>
<path d="M206.553 45.247L204.173 43.793C204.173 43.793 202.239 41.301 201.582 41.417C200.925 41.532 200.467 43.277 201.405 43.988C202.342 44.699 198.508 42.515 197.008 44.274C195.508 46.032 196.587 48.643 199.46 49.358C202.333 50.073 206.629 49.875 206.629 49.875L206.553 45.247Z" fill="#FCD3B7"/>
<path d="M214.121 28.569C214.121 28.569 214.391 25.678 216.601 26.074C218.811 26.47 221.174 37.287 220.771 43.359C220.368 49.431 219.322 53.089 218.78 53.1C218.238 53.111 204.747 49.938 204.747 49.938C204.747 49.938 205.613 47.128 205.619 44.502L214.847 46.97C214.847 46.97 212.663 38.127 214.121 28.569Z" fill="#ED1E79"/>
<defs>
<linearGradient id="paint0_linear_174_6122" x1="133.038" y1="123.701" x2="282.288" y2="123.701" gradientUnits="userSpaceOnUse">
<stop offset="0.2254"/>
<stop offset="0.8663" stop-color="#333333"/>
</linearGradient>
</defs>
</svg>
